/* XPM */
static char *ceil[] = {
/* columns rows colors chars-per-pixel */
"64 64 4 1 ",
"  c #2F2E2F",
". c #39314B",
"X c #3E2F5A",
"o c #564064",
/* pixels */
"                                                                ",
"oooooooo      oooooooooooooooooooooooooooooo      oooooooooooooo",
"oooooooo      oooooooooooooooooooooooooooooo      oooooooooooooo",
"oooooooooo  ooooooooooooooooooooXXXXoooooooooo  ooooooooooooXXXX",
"oooooooooo  ooooooooooooooooooooXXXXoooooooooo  ooooooooooooXXXX",
"XXooXXoooo  ooooXXXXooXXXXXXooXXXXXXXXooXXoooo  ooooXXooXXXXXXXX",
"XXooXXoooo  ooooXXXXooXXXXXXooXXXXXXXXooXXoooo  ooooXXooXXXXXXXX",
"XXXXXX..oo  oo..XXXXXXXX..XXXXXX......XXXX..oo  oo..XXXXXXXX....",
"XXXXXX..oo  oo..XXXXXXXX..XXXXXX......XXXX..oo  oo..XXXXXXXX....",
"XXXX......  ......XXXX......XXXXXXXXXXXX......  ......XXXX....XX",
"XXXX......  ......XXXX......XXXXXXXXXXXX......  ......XXXX....XX",
"..........  ......................XXXX........  ................",
"..........  ......................XXXX........  ................",
"........      ..............................      ..............",
"........      ..............................      ..............",
"                                                                ",
"                                                                ",
"oooooooooooooooooooooo      oooooooooooooooooooooooo      oooooo",
"oooooooooooooooooooooo      oooooooooooooooooooooooo      oooooo",
"ooooooooooooooooXXoooooo  ooooooooooooXXoooooooooooooo  ooooooXX",
"ooooooooooooooooXXoooooo  ooooooooooooXXoooooooooooooo  ooooooXX",
"XXXXooXXXXXXooXXXXXXoooo  ooooXXXXooXXXXXXXXooXXXXoooo  ooooXXXX",
"XXXXooXXXXXXooXXXXXXoooo  ooooXXXXooXXXXXXXXooXXXXoooo  ooooXXXX",
"XXXXXXXXXXXX..XXXXXXXXoo  ooXXXXXXXXXX..XXXX..XXXXXXoo  ooXXXX..",
"XXXXXXXXXXXX..XXXXXXXXoo  ooXXXXXXXXXX..XXXX..XXXXXXoo  ooXXXX..",
"XXXXXX....XXXX..XXXXXX..  ..XXXXXXXX....XXXXXX..XXXX..  ..XXXXXX",
"XXXXXX....XXXX..XXXXXX..  ..XXXXXXXX....XXXXXX..XXXX..  ..XXXXXX",
"XXXX....XXXXXX....XX....  ....XX......XXXX..XXXXXX....  ....XXXX",
"XXXX....XXXXXX....XX....  ....XX......XXXX..XXXXXX....  ....XXXX",
"..........XX............  ....................XX......  ......XX",
"..........XX............  ....................XX......  ......XX",
"......................      ........................      ......",
"......................      ........................      ......",
"                                                                ",
"                                                                ",
"oooooooooooo      oooooooooooooooooooooooo      oooooooooooooooo",
"oooooooooooo      oooooooooooooooooooooooo      oooooooooooooooo",
"oooooooooooooo  ooooooooooooXXooooooXXoooooo  ooooooooooooooooXX",
"oooooooooooooo  ooooooooooooXXooooooXXoooooo  ooooooooooooooooXX",
"XXXXooXXXXoooo  ooooXXXXooXXXXXXooXXXXXXoooo  ooooXXXXooXXXXXXXX",
"XXXXooXXXXoooo  ooooXXXXooXXXXXXooXXXXXXoooo  ooooXXXXooXXXXXXXX",
"XX..XXXXXX..oo  oo..XXXXXXXXXXXX..XXXXXX..oo  oo..XXXXXXXXXXXX..",
"XX..XXXXXX..oo  oo..XXXXXXXXXXXX..XXXXXX..oo  oo..XXXXXXXXXXXX..",
"XXXXXXXX......  ......XX....XXXXXXXXXX......  ......XXXXXXXX....",
"XXXXXXXX......  ......XX....XXXXXXXXXX......  ......XXXXXXXX....",
"....XX........  ..................XX........  ........XX........",
"....XX........  ..................XX........  ........XX........",
"............      ........................      ................",
"............      ........................      ................",
"                                                                ",
"                                                                ",
"  oooooooooooooooooooooooo      oooooooooooooooooooooooooooo    ",
"  oooooooooooooooooooooooo      oooooooooooooooooooooooooooo    ",
"ooooooooooooXXoooooooooooooo  ooooooooooooXXooooooXXoooooooooo  ",
"ooooooooooooXXoooooooooooooo  ooooooooooooXXooooooXXoooooooooo  ",
"ooXXXXooXXXXXXXXooXXXXXXoooo  ooooXXXXooXXXXXXooXXXXXXXXXXXXoo  ",
"ooXXXXooXXXXXXXXooXXXXXXoooo  ooooXXXXooXXXXXXooXXXXXXXXXXXXoo  ",
"XXXXXXXXXXXX..XXXXXXXX....oo  oo....XXXXXXXXXXXXXXXXXXXX..XXXX  ",
"XXXXXXXXXXXX..XXXXXXXX....oo  oo....XXXXXXXXXXXXXXXXXXXX..XXXX  ",
"............................  ............XXXX................  ",
"............................  ............XXXX................  ",
"  ........................      ............................    ",
"  ........................      ............................    ",
"                                                                "
};
