/* XPM */
static char *floor[] = {
/* columns rows colors chars-per-pixel */
"64 64 4 1 ",
"  c #131113",
". c #272329",
"X c #2A2630",
"o c #5B5A5B",
/* pixels */
"oooooooooooooooooooooooooooooooooooooooooooooooooooooooooooooooo",
"oooo                      oooooo                              oo",
"oooo                      oooooo                              oo",
"oo            ....          oo                    ....          ",
"oo            ....          oo                    ....          ",
"oo    ..  ..........  ..    oo    ....  ......  ........  ..    ",
"oo    ..  ..........  ..    oo    ....  ......  ........  ..    ",
"oo  XX........XXXX......XX  oo  XX........XX......XXXXXX....XX  ",
"oo  XX........XXXX......XX  oo  XX........XX......XXXXXX....XX  ",
"ooXXXXXX....XXXX......XXXXXXooXXXXXX....XXXXXX............XXXXXX",
"ooXXXXXX....XXXX......XXXXXXooXXXXXX....XXXXXX............XXXXXX",
"ooXXXXXXXXXXXXXXXXXXXXXXXXXXooXXXXXXXXXXXXXXXXXXXXXX....XXXXXXXX",
"ooXXXXXXXXXXXXXXXXXXXXXXXXXXooXXXXXXXXXXXXXXXXXXXXXX....XXXXXXXX",
"ooooXXXXXXXXXXXXXXXXXXXXXXooooooXXXXXXXXXXXXXXXXXXXXXXXXXXXXXXoo",
"ooooXXXXXXXXXXXXXXXXXXXXXXooooooXXXXXXXXXXXXXXXXXXXXXXXXXXXXXXoo",
"oooooooooooooooooooooooooooooooooooooooooooooooooooooooooooooooo",
"oooooooooooooooooooooooooooooooooooooooooooooooooooooooooooooooo",
"      oooooo                            oooooo                  ",
"      oooooo                            oooooo                  ",
"        oo      ..                ..      oo            ..      ",
"        oo      ..                ..      oo            ..      ",
"....    oo    ........  ......  ......    oo    ....  ........  ",
"....    oo    ........  ......  ......    oo    ....  ........  ",
"......  oo  ....XX............XX........  oo  ..........XX....XX",
"......  oo  ....XX............XX........  oo  ..........XX....XX",
"XX....XXooXX......XX....XXXX....XX......XXooXX........XXXX......",
"XX....XXooXX......XX....XXXX....XX......XXooXX........XXXX......",
"....XXXXooXXXX........XXXX......XXXX..XXXXooXXXX..XXXXXX....XX..",
"....XXXXooXXXX........XXXX......XXXX..XXXXooXXXX..XXXXXX....XX..",
"..XXXXXXooXXXXXX..XXXXXXXXXX..XXXXXXXXXXXXooXXXXXXXXXXXXXXXXXXXX",
"..XXXXXXooXXXXXX..XXXXXXXXXX..XXXXXXXXXXXXooXXXXXXXXXXXXXXXXXXXX",
"XXXXXXooooooXXXXXXXXXXXXXXXXXXXXXXXXXXXXooooooXXXXXXXXXXXXXXXXXX",
"XXXXXXooooooXXXXXXXXXXXXXXXXXXXXXXXXXXXXooooooXXXXXXXXXXXXXXXXXX",
"oooooooooooooooooooooooooooooooooooooooooooooooooooooooooooooooo",
"oooooooooooooooooooooooooooooooooooooooooooooooooooooooooooooooo",
"oo                            oooooo                        oooo",
"oo                            oooooo                        oooo",
"                ..              oo            ..      ..      oo",
"                ..              oo            ..      ..      oo",
"    ....  ............  ....    oo    ....  ......  ......    oo",
"    ....  ............  ....    oo    ....  ......  ......    oo",
"  XX............XX..XX......XX  oo  XX............XX......XX  oo",
"  XX............XX..XX......XX  oo  XX............XX......XX  oo",
"XXXXXX........XXXX........XXXXXXooXXXXXX..XXXX..........XXXXXXoo",
"XXXXXX........XXXX........XXXXXXooXXXXXX..XXXX..........XXXXXXoo",
"XXXXXXXX..XXXXXXXXXXXX..XXXXXXXXooXXXXXXXXXXXXXXXXXX..XXXXXXXXoo",
"XXXXXXXX..XXXXXXXXXXXX..XXXXXXXXooXXXXXXXXXXXXXXXXXX..XXXXXXXXoo",
"ooXXXXXXXXXXXXXXXXXXXXXXXXXXXXooooooXXXXXXXXXXXXXXXXXXXXXXXXoooo",
"ooXXXXXXXXXXXXXXXXXXXXXXXXXXXXooooooXXXXXXXXXXXXXXXXXXXXXXXXoooo",
"oooooooooooooooooooooooooooooooooooooooooooooooooooooooooooooooo",
"oooooooooooooooooooooooooooooooooooooooooooooooooooooooooooooooo",
"              oooooo                        oooooo              ",
"              oooooo                        oooooo              ",
"    ..          oo            ..              oo            ..  ",
"    ..          oo            ..              oo            ..  ",
"  ............  oo  ....  ........  ......    oo    ....  ......",
"  ............  oo  ....  ........  ......    oo    ....  ......",
"..........XX....oo............XX........XXXX  oo  XXXX..........",
"..........XX....oo............XX........XXXX  oo  XXXX..........",
"XXXXXXXXXXXXXXXXooXXXXXXXXXXXXXXXXXXXXXXXXXXXXooXXXXXXXXXXXX....",
"XXXXXXXXXXXXXXXXooXXXXXXXXXXXXXXXXXXXXXXXXXXXXooXXXXXXXXXXXX....",
"XXXXXXXXXXXXXXooooooXXXXXXXXXXXXXXXXXXXXXXXXooooooXXXXXXXXXXXXXX",
"XXXXXXXXXXXXXXooooooXXXXXXXXXXXXXXXXXXXXXXXXooooooXXXXXXXXXXXXXX",
"oooooooooooooooooooooooooooooooooooooooooooooooooooooooooooooooo"
};
