/* XPM */
static char *_0[] = {
/* columns rows colors chars-per-pixel */
"32 32 5 1 ",
"  c #2F2E2F",
". c #3E2F5A",
"X c #564064",
"o c #85578E",
"O c #BE9BB0",
/* pixels */
"                                ",
" oOOOOOOOOOOo oOOOOOOOOOOOOOOOo ",
" OooooooooooO OoooooXoooXoooooO ",
" ooXXXXoXXXoo ooXXoXXXoXXXXoXoo ",
" oXXXXXXXX..o o..XXXXXXXXXXXXXo ",
" XoXX........ ......XX.....XXXX ",
" .XX........   .............XX. ",
"                                ",
" XooooooooooooooooooooooooooooX ",
" ooooooooooooooXXoooooooooooooo ",
" ooXXXoXXoXXXoXXXXoXooXooXoXXoo ",
" oXoXXXXXXX.XXX...XXXXXXXXXXoXo ",
" oXXXXX.XX...XXXXXX..XX.X.XXXXX ",
" XoXXX..........XX.........XXXX ",
" .XX........................XX. ",
"                                ",
" Xoooooooo   oooooooooooooooooX ",
" ooooooXooo ooooooXoooooooooooo ",
" oooXoXXXoo ooXXoXXXXoXXoooXooo ",
" ooXX.XXXXo oXXXXX.XX.XXXoXoXoo ",
" oXoXX.XXX. .XXXX..XXX.XXXXXXXo ",
" oXXXX..X.. ..X...XX.XXX..XXXXX ",
" XoXX...... ..........X....XXXX ",
" .X.......   ...............XX. ",
"                                ",
" XooooooooooooooooooooooooooooX ",
" oooXooooooooXoooXooooooooooooo ",
" ooooXoooXXoXXXoXXXoooooXXooXoo ",
" ooXXo.o.XXXXXX.XXXXoXoXXXXXooo ",
" oXXXX....X..XXXXX.XXXXX.XXXXXo ",
" XoXX...........X.........XXXXX ",
" .X.........................XX. "
};
