/* XPM */
static char *_0[] = {
/* columns rows colors chars-per-pixel */
"32 32 185 2 ",
"   c #050505",
".  c #090705",
"X  c #0D0806",
"o  c #0D0B0B",
"O  c #1A0F07",
"+  c #110D0B",
"@  c #140C06",
"#  c #1C1107",
"$  c #13110C",
"%  c #1B1B0D",
"&  c #110F11",
"*  c #131213",
"=  c #181615",
"-  c #1F1E17",
";  c #1C191C",
":  c #26160A",
">  c #2C1B09",
",  c #341F0A",
"<  c #281B11",
"1  c #003D00",
"2  c #1F3F04",
"3  c #35200B",
"4  c #3C250C",
"5  c #382C0B",
"6  c #263F05",
"7  c #2C3D06",
"8  c #303807",
"9  c #353209",
"0  c #3D350C",
"q  c #353B0A",
"w  c #393A0B",
"e  c #2D2B16",
"r  c #252419",
"t  c #28271A",
"y  c #2D2C1C",
"u  c #362314",
"i  c #3D2819",
"p  c #332E17",
"a  c #33321E",
"s  c #3F3019",
"d  c #2C2820",
"f  c #272329",
"g  c #2A262A",
"h  c #2D2A2B",
"j  c #322E2C",
"k  c #28372D",
"l  c #363520",
"z  c #3C3B23",
"x  c #35322D",
"c  c #39362E",
"v  c #3C392E",
"b  c #2A2630",
"n  c #2D2A31",
"m  c #312D32",
"M  c #353233",
"N  c #393734",
"B  c #3D3B33",
"V  c #41270D",
"C  c #442A0E",
"Z  c #492C0F",
"A  c #44320E",
"S  c #453B0E",
"D  c #412C14",
"F  c #492C10",
"G  c #403210",
"H  c #413E34",
"J  c #014300",
"K  c #014C00",
"L  c #0B4A01",
"P  c #1B4603",
"I  c #134C02",
"U  c #1B4903",
"Y  c #015300",
"T  c #095301",
"R  c #015D00",
"E  c #095A02",
"W  c #1C5303",
"Q  c #185A02",
"!  c #1C4D13",
"~  c #234404",
"^  c #2C4307",
"/  c #224C04",
"(  c #2C4B06",
")  c #304407",
"_  c #304807",
"`  c #344309",
"'  c #334A08",
"]  c #3B4A0B",
"[  c #3D440B",
"{  c #245305",
"}  c #2D5307",
"|  c #235C05",
" . c #2C5E07",
".. c #265008",
"X. c #2F5708",
"o. c #2F5908",
"O. c #315708",
"+. c #355B09",
"@. c #3B530B",
"#. c #224210",
"$. c #026300",
"%. c #0C6402",
"&. c #006B00",
"*. c #0A6C01",
"=. c #146404",
"-. c #136B03",
";. c #1B6C03",
":. c #186B0C",
">. c #007300",
",. c #0B7702",
"<. c #017D00",
"1. c #0C7B02",
"2. c #157502",
"3. c #1A7403",
"4. c #137904",
"5. c #1F7B0C",
"6. c #146D17",
"7. c #276506",
"8. c #2A6305",
"9. c #246C04",
"0. c #296A05",
"q. c #316007",
"w. c #336008",
"e. c #22770E",
"r. c #38412C",
"t. c #2C6F26",
"y. c #2A6523",
"u. c #444326",
"i. c #494627",
"p. c #464629",
"a. c #4C4B2A",
"s. c #53532F",
"d. c #444333",
"f. c #484733",
"g. c #4C4A35",
"h. c #454238",
"j. c #494639",
"k. c #4C4B3A",
"l. c #504E36",
"z. c #545235",
"x. c #5B5B33",
"c. c #54523A",
"v. c #58573B",
"b. c #5B593B",
"n. c #49125D",
"m. c #4D225D",
"M. c #50215F",
"N. c #532D5E",
"B. c #4C0C62",
"V. c #560F6F",
"C. c #4F1863",
"Z. c #511D62",
"A. c #521169",
"S. c #551B6B",
"D. c #581F6E",
"F. c #5B1273",
"G. c #5D1D74",
"H. c #5E1379",
"J. c #562668",
"K. c #552865",
"L. c #5C316A",
"P. c #5F2176",
"I. c #602477",
"U. c #642B78",
"Y. c #414041",
"T. c #4B4A4A",
"R. c #5C5A40",
"E. c #575657",
"W. c #585753",
"Q. c #5C5B5B",
"!. c #605F5C",
"~. c #616041",
"^. c #63625D",
"/. c #68675E",
"(. c #6C6B5E",
"). c #706F59",
"_. c #70705F",
"`. c #777661",
"'. c #7B7A62",
"]. c #008000",
"[. c #0A8103",
"{. c #158007",
"}. c #198309",
"|. c #268510",
" X c #FFFFF6",
/* pixels */
"Q.M x c j j n M M N H H N m m m n M N B M b b b b b b b b f b Q.",
"Q.x H d.B x m H H N H H N N B x m H k.h.N M M b b b g f f * f Q.",
"Q.y H f.d.c N H U.U.M.n.Z.B j.B x d.v.c.c.d.B m n m h x h h * Q.",
"^.z a.s.l.v f.d.D.V.S.H.H.J.d.d.N B k. Xv.g.d.j.l h.z B d.y = Q.",
"^.p.s. Xu.z d.c S.V.V.H.H.S.N M a d.l.g.u.H z.p.u.p.z.x.z.a t Q.",
"^.u.s.i.i.l L.S.F.F.G.G.P.].x l z z d.a t a z z z u.s. Xx.a.a Q.",
"Q.x z a a z y - C.C.y z t <.l z z a a z l y ! {.#.l a.s.s.u.d.Q.",
"Q.Q.^.^.^./.(.^.M.K._._./.1.^./.^.^.^.^.^.!.<.>.J.F.F.P.^././.!.",
"Q.n g h B h.k.k.H H R.R.j.-.y.B M m H /.Q.>.<.k H.I.F.G.G.H H ^.",
"Q.j h g c H j.c.k.c.~.~.j.e.[.M B H h.N t.<.1 b F.G.I.I.G.y d.^.",
"^.f.f.H H g.k.k.g.c. XR.j.r.<.e.k.R.h.m [.&.K f F.F.F.G.x v z Q.",
"!.p.l.d.f.z.c.l.d.v.k.v.c.H <.|.T.k.B *.<.6.h h g Z.Z.x z f.y Q.",
"Q.a.s.b.z g.i.f.d.H k.v.c.h.[.}.d.d.M <.<.* j B H M N p.g.z t Q.",
"^.p. Xs.d.a U.U.M.N.z z.g.H ,.4.x x ! <.1.t a g.g.g.z H z z r Q.",
"(.s.s.x.a.a H.G.A.n.r y y x >.4.l l :.<.E a z a g.a.s.a.a.z - Q.",
"(.g.a.s.a.L.G.G.F.F.R K K . $.=.e a 4.<.T.W.a z u.i.z. Xx.z j E.",
"^.^.(.(./.!.B.B.. . &.. . K $.*.$ % [.<.    t H v.).`.`.'.(.Q.Q.",
"Q.j x v v y B.B.. O &.@ : K $.$., Q <.&.. . % e u.a.i.i.d.d.m Q.",
"Q.f h t e % # > 4 4 4 <.<.Y &.&.0 1.].4 V $.$.%.D p a e % $ g Q.",
"Q.f ; $ > 4 4 4 6 4 D &.>.i >.>.K <.<.$.$.7 0 C w G F 4 < . . Q.",
"Q.o . : 4 7 ` ( P 7 4 >.>.C >.>.$.<.&.$.$.[ A Z P ~ | ) 9 &   g ",
"Q.  . 3 C ( ;.,.I >.] ].<.C >.&.<.>.S ] F 8._ S ..^ _ 8 ~ 4 o   ",
"= . # 9 A K ` w.w.+.+.<.<.Z >.<.>.$.0.4.0.w.3.*.1.7 / ( P u & . ",
"  # 4 9 P 1.%.3.4.+./ C 2.<.>.>.J J ] <.1.@.e.( ~ L O.| P >     ",
"  3 C ^ [ 9.{ +.2.8.2 $.$.>.J J ].<.Y ' 8. .2.~ ~ { P P U a $   ",
"  4 8 ~ ^ / *.] 3.` } &.-.Y $.K J T >.I 3.7.X.Z W -.0 U { 9 A   ",
"+ , Z 2 ) K =.~ 4.8.>.;.W 7 | W ~ { W 2 ^ R =.' *.Y K 0 -.{ w , ",
". 4 Z ( / U P 8 <.<.1.9.<.9.O.0.9. .7.+.] ( / I ,.*.4 6 w F 4 : ",
"@ : A ` ( ~ U Z A 7.<.<.O.<.3.w.+.2.4.3.3.8.w.{ W Q 4 E ] 4 F u ",
"$ # 4 A Z Z 0 ` I q Z ;.w 1.3. .<.<.<.+. .4.3.4 { ( U =.( , ,   ",
"Q.      X , F > 6 0 Z Z Z , 3 4 4 4 0 X.V 4 ` 4 4 4 9 4 >       ",
"Q.Q.W.N.*     = . .   . . . . . .   . .     .     .           E."
};
