/* XPM */
static char *_0[] = {
/* columns rows colors chars-per-pixel */
"32 32 62 1 ",
"  c #020202",
". c #0C0402",
"X c #060408",
"o c #080708",
"O c #0B0A0C",
"+ c #110B0E",
"@ c #0E0C10",
"# c #110F12",
"$ c #131113",
"% c #141218",
"& c #1A171C",
"* c #1C191F",
"= c #2B1B0F",
"- c #321E0C",
"; c #35200D",
": c #3C240C",
"> c #36280E",
", c #3E2A0E",
"< c #362312",
"1 c #3B2614",
"2 c #392A1F",
"3 c #1D1B21",
"4 c #221E24",
"5 c #272627",
"6 c #272329",
"7 c #28242E",
"8 c #2C2E2C",
"9 c #3B2B23",
"0 c #382F28",
"q c #2E332E",
"w c #3C3124",
"e c #2A2630",
"r c #323632",
"t c #353936",
"y c #3E3E3E",
"u c #41270D",
"i c #45290E",
"p c #492C0F",
"a c #462B13",
"s c #492C11",
"d c #412D1D",
"f c #482F1A",
"g c #4B3320",
"h c #4D3C32",
"j c #3D423D",
"k c #434443",
"l c #464A47",
"z c #474A48",
"x c #4A4B4A",
"c c #544B45",
"v c #554D49",
"b c #4D514D",
"n c #555555",
"m c #575857",
"M c #575A58",
"N c #5B5A5B",
"B c #675F5B",
"V c #636363",
"C c #6B6C6B",
"Z c #707070",
"A c #777877",
"S c #7D7D7D",
/* pixels */
"Ne66eeee& oX#nnnnMnOo37eeeeee6eN",
"N66666e&  %nnnlCSSSnn 37eee66$6N",
"N$66664 X@znnZNMZZZSSmO&7e6666$N",
"N$$$66Oo#ynnSnlnZZZZZSnXXe$66$$N",
"N$$6$$  OnnnSMknZZZCCAnOO$6$$$$N",
"N$$$$$X blnAZMkbZZZCCVSnX#$6$$$N",
"N6$$$ X bklVZNbxZZZZjVSn O$$$$6N",
"NNNNN  ObjqjZZbVZZZCjbSm nNNNNNN",
"N7666% Oxj8jZZZZZZZZxxSn 37ee6eN",
"N6666& oxj8jZZZkknnZbkSn #766$6N",
"N6666  OxjqbZZZknnnZZNAm  6666$N",
"N$666 O xjqbZZZjkhkZZCZmXO66$6$N",
"N#$6O O ljrVZZZZZZZZZCZn &e66$$N",
"N$$$&  .kqtAZnnnZnnnnCVm 4$6$$$N",
"N$$$    kqtSZZZZZCZZCCVn O$$$$$N",
"N6$$   XjtjSZnnnxxZnnCCx X$$$$6N",
"NNNNy   kxnSZZZZZVVZZVnz  hNNMNN",
"Ne66&  nnkxkvnnmzzjnnxkxnX4776eN",
"N666X%@nnkZVCSSSNSVASCnVnX*66#6N",
"N664O$OnkxVmVZZVVZMCZVxSn 4666%N",
"N$6XXX nxyNmZZZnZZVMVmVSn &4#6$N",
"N$$ @X nzkxZZZVVZZZnw>hBn + 3$$N",
"N$$X X zxkVucp:c9dv::u,uu:=X X$N",
"N6$  -s10911::::>;:ssppiiu:><X 8",
"NN5 Ou::::upppi:pppu:uipiuiu:2O ",
"N74  i::::psppsuipuupu:pa:pp::pX",
"N666 +a:9::uspppp::puiuupp:i::ap",
"N$664X X<1u:usuip:uiipuppi::pi:f",
"M##5+$$  =:<::ppiuuiiuppp::pi:ig",
"No$#$$OO   ::::uupppp::-:::::;- ",
"N$oooXXX     .::u:::u::>::::-   ",
"NNNNMNNNNmX%  g:d:au::p:aduh o8n"
};
