/* XPM */
static char *_0[] = {
/* columns rows colors chars-per-pixel */
"32 32 30 1 ",
"  c #060606",
". c #131113",
"X c #2E1E22",
"o c #272329",
"O c #2A2630",
"+ c #323234",
"@ c #534721",
"# c #505133",
"$ c #555836",
"% c #6E5E2C",
"& c #545456",
"* c #5B5A5B",
"= c #635B4D",
"- c #6E6B4B",
"; c #736A64",
": c #7D7375",
"> c #767678",
", c #86826A",
"< c #959963",
"1 c #979799",
"2 c #A09B90",
"3 c #A9AA86",
"4 c #BABE95",
"5 c #B1ABAD",
"6 c #B7B7BB",
"7 c #CDCDBB",
"8 c #D2D2D6",
"9 c #E4E6D1",
"0 c #E5E3E3",
"q c white",
/* pixels */
"*OooOOOOOOOOOOOOOOOOOOOOOOOOOoO*",
"*oooooOOOOOOOOOoOOOOOOOOOOOoo.o*",
"*.oooooOoooooO$$$$$$$oOOOOoooo.*",
"*...ooooo.o.$$<<444<<$$O.O.oo..*",
"*..o..oo...$<449999944<$..o....*",
"*.........$<49999999994<$..o...*",
"*o........$4999qqqqq9994$.....o*",
"*********$<499qqqqqqq994<$******",
"*1ooOOOOO$4449qqqqqqq9444$OOOoO*",
"*11ooOOOO$49999qqqqq99994$Ooo.o*",
"*1q1ooOOo$49qqq9qqq9qqq94$oooo.*",
"*1qq1oooo$47550q999q05574$oo.o.*",
"*1qq6o.oo$3;XX:0qqq0:XX;3$Ooo..*",
"*18q81..o$-XXXX5qqq5XXXX-$.o...*",
"*.1qq1...$-XXXX5q9q5XXXX-$.....*",
"*o18q6....#=XX:0<4<0:XX=#.....o*",
"***1q81***$#,20qqqqq02,#$*******",
"*Oo1881OO$<<$<$9<9<9$<$<<$O+++O*",
"*ooo1881$4q94$$$$$$$$$49+++&>+o*",
"*ooo1881++949qqq<<<qq+++>61>&+.*",
"*.o.+188&&+$<<<4q9q4<+166>@%&+.*",
"*..+&&&+++.$49qq444qq+1%@%@%&+.*",
"*...+++$$...$<<4<<<4<+1%@%1>&+.*",
"*o.........$494$$<$$4+1666>&&+o*",
"***********$<q9<$4$<9+166>@%&+**",
"*OooOOOOOOOO$4q4<<<4q+1%@%@%&+O*",
"*ooooOOOOOoo$q4$$$$$<+>6@%@%&+o*",
"*.oooooooooo$49<$.$<4<+>6%@&+o.*",
"*..o.oooo.oo$9qq<.*$$$o+>1>+o..*",
"* .....o...o$qqq< * ....+++... *",
"*.               .*.          .*",
"********************************"
};
