/* XPM */
static char *_1[] = {
/* columns rows colors chars-per-pixel */
"32 32 22 1 ",
"  c #060606",
". c #131113",
"X c #2E1E22",
"o c #272329",
"O c #2A2630",
"+ c #323234",
"@ c #534721",
"# c #555836",
"$ c #6E5E2C",
"% c #545456",
"& c #5B5A5B",
"* c #7D7375",
"= c #767678",
"- c #959963",
"; c #979799",
": c #BABE95",
"> c #B1ABAD",
", c #B7B7BB",
"< c #D2D2D6",
"1 c #E4E6D1",
"2 c #E5E3E3",
"3 c white",
/* pixels */
"&OooOOOOOOOOOOOOOOOOOOOOOOOOOoO&",
"&oooooOOOOOOOOOoOOOOOOOOOOOoo.o&",
"&.oooooOooooo#######OoOOOOoooo.&",
"&...ooooo.o##--:::--##oO.O.oo..&",
"&..o..oo..#-::11111::-#...o....&",
"&........#-:111111111:-#...o...&",
"&o.......#:11133333311:#......o&",
"&&&&&&&&#-:113333333311-#&&&&&&&",
"&OooOOOO#:1133333333331:#OOOOoO&",
"&ooooOOO#:11133111111311#OOoo.o&",
"&oooooOO#::111:133333131#Ooooo.&",
"&.oooooo#:::::1332>>231:#Ooo.o.&",
"&..o.o.o#-:::-132*XX*23:#oOoo..&",
"&...o...#----:13>XXXX>31#o.o...&",
"&........#--:133>XXXX>31#......&",
"&o........##--:32*XX*2-:#.....o&",
"&&&&&&&&&&&&#--:32>>21:#&&&&&&&&",
"&OooOOOOOOOOO#---1-2#-;;;;;;ooO&",
"&ooooOOOOOOOO#######;;<333;+o.o&",
"&oooooOoOooO+:1:13;;<333,;%+oo.&",
"&.o.ooooooo+=+31;;<333;;$@%+.o.&",
"&..oo.o..o.+;%;;<333,;+,$=%+o..&",
"&........##+;=<333;;#.+,;=%+...&",
"&o......#-33%;33,;##..+,;@%+..o&",
"&&&&&&&&#:33%;%+1:-#&&+,$@%+&&&&",
"&OooOOOOO#::+%;+:13##O+;$@%+ooO&",
"&ooooOOOOO##-+;+#:131#O+,@+oo.o&",
"&.ooooooooo#--+O#--133#+;=+ooo.&",
"&..o.oooo.oo###o.#:333#o++ooo..&",
"& .....o...o..... ####........ &",
"&.               .&.          .&",
"&&&&&&&&&&&&&&&&&&&&&&&&&&&&&&&&"
};
