/* XPM */
static char *_2[] = {
/* columns rows colors chars-per-pixel */
"32 32 18 1 ",
"  c #060606",
". c #131113",
"X c #272329",
"o c #2A2630",
"O c #323234",
"+ c #534721",
"@ c #555836",
"# c #6E5E2C",
"$ c #545456",
"% c #5B5A5B",
"& c #767678",
"* c #959963",
"= c #979799",
"- c #BABE95",
"; c #B7B7BB",
": c #D2D2D6",
"> c #E4E6D1",
", c white",
/* pixels */
"%oXXoooooooooooooooooooooooooXo%",
"%XXXXXoooooooooXoooooooooooXX.X%",
"%.XXXXXoXXXXX@@@@@@@oXooooXXXX.%",
"%...XXXXX.X@@**---**@@Xo.o.XX..%",
"%..X..XX..@*-->>>>>--*@...X....%",
"%........@*->>,,,,,>>-*@...X...%",
"%X.......@->>,,,,,,,>>-@......X%",
"%%%%%%%%@*->,,,,,,,,,>-*@%%%%%%%",
"%oXXoooo@->>,,,,,,,,,>>-@ooooXo%",
"%XXXXooo@->>,,,,,,,,,>>-@ooXX.X%",
"%XXXXXoo@->>,,,,,,,,,>>-@=XXXX.%",
"%.XXXXXX@->>>,,,,,,,>>>-@=XX.X.%",
"%..X.X.X@-->>>>>>>>>>>--@=oXX..%",
"%...X...@**>--------->**@=.X...%",
"%.......@**--*******--**@=.....%",
"%X.......@***@@@@@@@***@:=....X%",
"%%%OO%%%%@@@@@@*-*@@@@@@:=%%%%%%",
"%oXO$OOo@**--*@***@*--**@=ooXXo%",
"%XXO$=$OO-,,,>*->-*>,,,-*@XXX.X%",
"%XXO+$=;O,-,,,-*-*-,,,->-@XXXX.%",
"%.XO+#+;O*@-,,*->-*,,-@*>*@O.X.%",
"%..O$#+;O@@*--*@-@*--*@--*@OX..%",
"%..O$==;O..@**@*,*@**@@**@O....%",
"%X.O+&=;O.@-,>@*>*@>,-@@@.....X%",
"%%%O+#+;O%@*-,,@-@,,>*@%%%%%%%%%",
"%oXO$#+;Ooo@*--***--*@ooooooXXo%",
"%XXXO#=OooX@**@@@@@,>@oooooXX.X%",
"%.XXO=$OXXX@-**@o@->-@XXXXXXXX.%",
"%..X.OOXX.XX@@@X.*,,>@XX.XXXX..%",
"% .....X...X.....*,,,@........ %",
"%.               .%.          .%",
"%%%%%%%%%%%%%%%%%%%%%%%%%%%%%%%%"
};
