/* XPM */
static char *_3[] = {
/* columns rows colors chars-per-pixel */
"32 32 22 1 ",
"  c #060606",
". c #131113",
"X c #2E1E22",
"o c #272329",
"O c #2A2630",
"+ c #323234",
"@ c #534721",
"# c #555836",
"$ c #6E5E2C",
"% c #545456",
"& c #5B5A5B",
"* c #7D7375",
"= c #767678",
"- c #959963",
"; c #979799",
": c #BABE95",
"> c #B1ABAD",
", c #B7B7BB",
"< c #D2D2D6",
"1 c #E4E6D1",
"2 c #E5E3E3",
"3 c white",
/* pixels */
"&OooOOOOOOOOOOOOOOOOOOOOOOOOOoO&",
"&oooooOOOOOOOOOoOOOOOOOOOOOoo.o&",
"&.oooooOooooo#######OoOOOOoooo.&",
"&...ooooo.o##--:::--##oO.O.oo..&",
"&..o..oo..#-::11111::-#...o....&",
"&........#-:111111111:-#...o...&",
"&o.......#:11333333111:#......o&",
"&&&&;&&&#-113333333311:-#&&&&&&&",
"&Ooo;;OO#:1333333333311:#OOOOoO&",
"&ooo;<;O#11311111133111:#OOoo.o&",
"&ooo;<;O#131333331:111::#Ooooo.&",
"&.oo;<<;#:132>>2331:::::#Ooo.o.&",
"&..o;<<;#:32*XX*231-:::-#oOoo..&",
"&...o;<<#13>XXXX>31:----#o.o...&",
"&....;<<#13>XXXX>331:--#o......&",
"&o....;<#:-2*XX*23:--##.......o&",
"&&&&&&;<<#:12>>23:--#&&&&&&&&&&&",
"&OooOOO;<<#-#2-1---#OOOOOOOOooO&",
"&ooooOO;<<;#########OO+++++oo.o&",
"&oooooOo;<<#--331:++++=;=%+ooo.&",
"&.o.oooo;<<#13:--1+=;,,@$%+o.o.&",
"&..oo.o+%==#:3331-+=$@$@$%+oo..&",
"&.....+===%%#--:::+=$@$@$%+....&",
"&o.....+++...##---+=;,,;=%+...o&",
"&&&&&&&&&&&&&#-:1:+=;,,;=%+&&&&&",
"&OooOOOOOOOO##31:-+=$@$@$%+OooO&",
"&ooooOOOOOo#131:##+%;@$@$%+oo.o&",
"&.oooooooo#331--#.#+%;$@=+oooo.&",
"&..o.oooo.#333:#..##+%;;+oooo..&",
"& .....o...####.. & .+++...... &",
"&.               .&.          .&",
"&&&&&&&&&&&&&&&&&&&&&&&&&&&&&&&&"
};
