/* XPM */
static char *_4[] = {
/* columns rows colors chars-per-pixel */
"32 32 10 1 ",
"  c #060606",
". c #131113",
"X c #272329",
"o c #2A2630",
"O c #5B5A5B",
"+ c #4A8F30",
"@ c #59AC39",
"# c #B8E2A8",
"$ c #D7EFCE",
"% c white",
/* pixels */
"OoXXoooooooooooooooooooooooooXoO",
"OXXXXXoooooooooXoooooooooooXX.XO",
"O.XXXXXoXXXXXoXXXXXooXooooXXXX.O",
"O...XXXXX.X.XXXXoXXXXXXo.o.XX..O",
"O..X..XX.....XXX.XXX.XX...X....O",
"O.............X...X........X...O",
"OX............................XO",
"OOOOOOOOOOOOOOOOOOOOOOOOOOOOOOOO",
"OoXXoooooooooo@@@@oOOOoooooooXoO",
"OXXXXooooXoo@@$$$$@@OooooooXX.XO",
"OXXXXXooXXX@$$####$$@ooXooXXXX.O",
"O.XXXXXXXo@$########$@XXXoXX.X.O",
"O..X.X.XX@$##########$@XXXoXX..O",
"O...X...X@$#%+###%+##$@XXX.X...O",
"O.......@$##++###++###$@X......O",
"OX......@$############$@......XO",
"OOOOOOOOO@$###+++####$@OOOOOOOOO",
"OoXXooooo@$##########$@oooooXXoO",
"OXXXXooooo@$########$@ooooXXX.XO",
"OXXXXXoXoXX@$$$$$$$$@oXXoXXXXX.O",
"O.X.XXXXXXXX@@@@@@@@oXXXXXXX.X.O",
"O..XX.X..X..X.XXXX.XXX.XX.XXX..O",
"O..............XX..............O",
"OX............................XO",
"OOOOOOOOOOOOOOOOOOOOOOOOOOOOOOOO",
"OoXXoooooooooooooOOOooooooooXXoO",
"OXXXXoooooXXooooooOooooooooXX.XO",
"O.XXXXXXXXXXXXXoo.O.ooXXXXXXXX.O",
"O..X.XXXX.XXX.XX..O..XXX.XXXX..O",
"O .....X...X..... O .......... O",
"O.               .O.          .O",
"OOOOOOOOOOOOOOOOOOOOOOOOOOOOOOOO"
};
