/* XPM */
static char *_8[] = {
/* columns rows colors chars-per-pixel */
"32 32 152 2 ",
"   c #060606",
".  c #131113",
"X  c #2C0000",
"o  c #2F0000",
"O  c #3F0000",
"+  c #272329",
"@  c #2A2630",
"#  c #440000",
"$  c #560000",
"%  c #5E5758",
"&  c #5B5A5B",
"*  c #820000",
"=  c #830000",
"-  c #820202",
";  c #860301",
":  c #870401",
">  c #961205",
",  c #BC4117",
"<  c #BA4619",
"1  c #B7501B",
"2  c #B6521C",
"3  c #B3591E",
"4  c #B05E1F",
"5  c #9F7828",
"6  c #9F7928",
"7  c #9A7D29",
"8  c #987F29",
"9  c #9A7F2A",
"0  c #9C7C29",
"q  c #9D7D29",
"w  c #AE6220",
"e  c #AE6221",
"r  c #AE6321",
"t  c #A66E24",
"y  c #A76E24",
"u  c #A66F25",
"i  c #A86A23",
"p  c #A96A23",
"a  c #A86C24",
"s  c #A57125",
"d  c #A67025",
"f  c #A17427",
"g  c #A27426",
"h  c #A37426",
"j  c #A27527",
"k  c #A17627",
"l  c #4A8F30",
"z  c #529D36",
"x  c #779D34",
"c  c #7A9A33",
"v  c #59AC39",
"b  c #5AAC39",
"n  c #6EA236",
"m  c #68A537",
"M  c #6AA436",
"N  c #8F892D",
"B  c #8F8A2D",
"V  c #8E8B2E",
"C  c #888F2F",
"Z  c #898F2F",
"A  c #8A8F2F",
"S  c #96832B",
"D  c #91872C",
"F  c #92872C",
"G  c #99802A",
"H  c #98812B",
"J  c #91882D",
"K  c #90892D",
"L  c #88902F",
"P  c #89902F",
"I  c #869130",
"U  c #859230",
"Y  c #849330",
"T  c #859330",
"R  c #889030",
"E  c #BD9371",
"W  c #B29F72",
"Q  c #8CBD77",
"!  c #9FB075",
"~  c #9AB475",
"^  c #91BA76",
"/  c #A7A173",
"(  c #A7A673",
")  c #ABA673",
"_  c #ACA573",
"`  c #A4AB74",
"'  c #A2AD74",
"]  c #A8A974",
"[  c #B0A172",
"{  c #88C077",
"}  c #9BBF82",
"|  c #9EB097",
" . c #9FB097",
".. c #B3AC80",
"X. c #A0BB81",
"o. c #A1BB81",
"O. c #AEB989",
"+. c #AEBA89",
"@. c #B6B68B",
"#. c #B6B68C",
"$. c #BAB38B",
"%. c #B4B88C",
"&. c #B5B88C",
"*. c #B3BF91",
"=. c #B6BC91",
"-. c #C4A586",
";. c #92C583",
":. c #9CCA8F",
">. c #A1C78E",
",. c #AEC392",
"<. c #ADC492",
"1. c #A7C893",
"2. c #A3CE96",
"3. c #A3CE97",
"4. c #ABC996",
"5. c #B1C091",
"6. c #B1C191",
"7. c #B3C395",
"8. c #B6C69A",
"9. c #B7C69A",
"0. c #BBC399",
"q. c #BDC199",
"w. c #B9C49A",
"e. c #B8C59A",
"r. c #BEC79F",
"t. c #B2C999",
"y. c #B3C89A",
"u. c #B1CA9A",
"i. c #B0CB9B",
"p. c #B1CB9C",
"a. c #BDC89F",
"s. c #A8D19B",
"d. c #B5CEA1",
"f. c #BCCAA0",
"g. c #BDCAA1",
"h. c #B8CCA1",
"j. c #BCCFA5",
"k. c #ADD4A2",
"l. c #BBD1A6",
"z. c #BBD5AA",
"x. c #B5D9AA",
"c. c #C4C29F",
"v. c #C2C49F",
"b. c #C2C5A0",
"n. c #C6C9A5",
"m. c #C5CDA8",
"M. c #C0D1A9",
"N. c #CDD4B3",
"B. c #C8D8B3",
"V. c #CEE4C1",
"C. c #D4EBC9",
"Z. c #D7EFCE",
/* pixels */
"& @ + + @ @ @ @ @ @ @ @ @ @ @ @ @ @ @ @ @ @ @ @ @ @ @ @ @ + @ & ",
"& + + + + + @ @ @ @ @ @ @ @ @ + @ @ @ @ @ @ @ @ @ @ @ + + . + & ",
"& . + + + + + , + + + + + @ + + + + + @ @ + @ @ @ @ + + + + . & ",
"& . . . + + + + + . + . + + + + @ + + + O + + @ . @ . + + . . & ",
"& . . + . . + + . . = . . + + + e + + + . + + . . . + . . . . & ",
"& . . . . . . . . . . . . . + . . . + . . . . . . . . + . . . & ",
"& + . . . . . . . . . . . . . . . . . . . , . . . . . . . . + & ",
"& & & & & & & & & & & & & & & & & & & & & & & & & & & & & & & & ",
"& @ + + @ O @ @ @ @ @ @ @ @ @ @ @ @ @ & & & @ @ O @ @ @ @ + @ & ",
"& + + + + @ @ @ @ + @ @ = = v v = = = @ & @ @ @ @ @ @ + + . + & ",
"& + + + + + @ @ e + + = { } &.r.b.=./ = & @ @ + @ @ + + + + . & ",
"& . + + + = + + + @ v { ,.X.@.a.f.*.6.( = @ + + = @ + + . + . & ",
"& . . + . + . + + = { 6.! x 0 0 F H ' i.d.v + + + + @ + + . . & ",
"& . . . + . . . v s.z.[ H S K e 5 5 R _ c.e.= = + + . + . . . & ",
"& . . . . . . = s.i.> = > 1 j 5 u 3 > ; > i.b.$.= . . . . . . & ",
"& + . . . . = x.m.> =  .= > 2 c k > ;  .= > l.7.v . . . . . + & ",
"& & & & & v 2.l.) =  .Z. .= j C 6 ; | Z. .= %.f.-.v & & & & & & ",
"& @ + + = : 2.4.t > =  .= > i V H > = | = > 5 +.B.: @ @ + + @ & ",
"& + + + b { ^ R F g > = > s I s R 4 > = > t K I ' E = + + . + & ",
"& + + + = ;.X.m 0 i i g j 8 K i 7 k R R c K P 5 <.6.v + + + . & ",
"& . + . = :.>.n H I t l = l = l = l = l e I I S M._ = + . + . & ",
"& . . + + = k.d.~ W 3 = $ o o O o X # = a p.+.V.n.v + + + . . & ",
"& . . . . = ;.;.{ 1.] < l = l = l = l p #.C.N._ = . . . . . . & ",
"& + . . . . v = = { Q q.q.y.e.q.e.p.8.e.M.Q = v = . . . . . + & ",
"& & & & & & & & = v = = v = = v = = v v = = = & & & & & & & & & ",
"& @ + + @ @ @ @ @ @ @ @ @ @ @ @ @ & & & @ @ @ @ @ @ @ @ + + @ & ",
"& + + + + @ @ @ @ @ = + m @ @ @ @ v & @ @ @ @ @ @ @ @ + + . + & ",
"& . + + + + + + + + + + + + z v @ . & . @ @ + + + + + + + + . & ",
"& . . + . + + + + . + + + . v z v . & . . + + + . + + + + . . & ",
"&   . . . . . + . . . + . . . . .   &   . . . . . . . . . .   & ",
"& .                               . & .                     . & ",
"& & & & & & & & & & & & & & & & & & & & & & & & & & & & & & & & "
};
