/* XPM */
static char *_9[] = {
/* columns rows colors chars-per-pixel */
"32 32 131 2 ",
"   c #060606",
".  c #131113",
"X  c #272329",
"o  c #2A2630",
"O  c #274317",
"+  c #335B1B",
"@  c #3C5F2A",
"#  c #41503B",
"$  c #416A30",
"%  c #487A30",
"&  c #485444",
"*  c #4A5548",
"=  c #5B5A5B",
"-  c #54674C",
";  c #576B4F",
":  c #5C6F55",
">  c #5B7153",
",  c #5D7057",
"<  c #677C5F",
"1  c #626661",
"2  c #687D61",
"3  c #518D2D",
"4  c #4A8F30",
"5  c #6ABE30",
"6  c #6BBD34",
"7  c #6DBF39",
"8  c #608553",
"9  c #689950",
"0  c #6DB742",
"q  c #6FA259",
"w  c #73AC57",
"e  c #74AC59",
"r  c #72B351",
"t  c #79BC56",
"y  c #6B8162",
"u  c #6F8A65",
"i  c #708A67",
"p  c #74836F",
"a  c #728A69",
"s  c #738B6B",
"d  c #78936D",
"f  c #798A73",
"g  c #7B8D75",
"h  c #7B9770",
"j  c #7C9773",
"k  c #7D9974",
"l  c #7EA36E",
"z  c #7FA770",
"x  c #78C34F",
"c  c #79C153",
"v  c #7BC355",
"b  c #7CC556",
"n  c #7EC659",
"m  c #89A77E",
"M  c #89A87F",
"N  c #8AA97E",
"B  c #80C55F",
"V  c #81C75E",
"C  c #83C761",
"Z  c #8AC476",
"A  c #8ECB73",
"S  c #8FC378",
"D  c #94CA7E",
"F  c #8CAD81",
"G  c #8EAE82",
"H  c #8EAE83",
"J  c #96B789",
"K  c #96B88A",
"L  c #97BA8B",
"P  c #9ABA8F",
"I  c #95C084",
"U  c #9BCE89",
"Y  c #9AD183",
"T  c #9BD183",
"R  c #9CD185",
"E  c #A2D58C",
"W  c #A5CB96",
"Q  c #A5CC96",
"!  c #A5C998",
"~  c #A6CC98",
"^  c #A7CF99",
"/  c #A8CE9A",
"(  c #A7D793",
")  c #A8D797",
"_  c #A6D892",
"`  c #A9D09B",
"'  c #AAD19B",
"]  c #ABD29C",
"[  c #ABD39D",
"{  c #ABD49C",
"}  c #ACD49E",
"|  c #ADD69F",
" . c #AED69E",
".. c #AED69F",
"X. c #A9D898",
"o. c #ABDB99",
"O. c #ACDC9A",
"+. c #AEDC9B",
"@. c #AEDB9E",
"#. c #AFDC9F",
"$. c #AFD7A1",
"%. c #B0DBA0",
"&. c #B1D9A2",
"*. c #B3DBA3",
"=. c #B1DDA1",
"-. c #B3DDA3",
";. c #B3DFA3",
":. c #B3DBA4",
">. c #B5DEA5",
",. c #B5E0A5",
"<. c #B6E0A6",
"1. c #B6E1A6",
"2. c #B7E1A7",
"3. c #B7E2A7",
"4. c #B8E2A8",
"5. c #B9E3A9",
"6. c #BAE3AA",
"7. c #BAE3AB",
"8. c #BBE3AB",
"9. c #BBE4AB",
"0. c #BBE4AC",
"q. c #BCE4AD",
"w. c #BDE4AF",
"e. c #C1E5B3",
"r. c #C3E7B6",
"t. c #C7E8BA",
"y. c #C7E9BB",
"u. c #C8E9BC",
"i. c #CBEAC0",
"p. c #CEEBC3",
"a. c #D4EECB",
/* pixels */
"= o X X o o o o o o o o o o o o o o o o o o o o o o o o o X o = ",
"= X X X X X o o o o o o o o o X o o o o o o o o o o o X X . X = ",
"= . X X X X X o X X X X X o X X X X X o o X o o o o X X X X . = ",
"= . . . X X X X * @ X . X X X X o X X X X X X o . o . X X . . = ",
"= . . X . . X X h { d . . X X X . X X X . X X . . . X . . . . = ",
"= . . . . . . . . 6 9 . . . X . . . X . . . . . . . . X . . . = ",
"= X . . . . . . . . . . . . . . - ; . . . . . . . . . . . . X = ",
"= = = = = = = = = = = = = = = P &.7.= = = = = = = = = = = = = = ",
"= o X X o o o o o o o o o o o v L F >.= = = o o o o o o o X o = ",
"= X X X X o o o o X o o o o o o o o o o = o o o o o o X X . X = ",
"= X X X X X c 8 y & X o X X o o o X o o = o o X o 6 P X X X . = ",
"= . X X X X @ n ..G J X X o o X X X X o = o X X X / ] X . X . = ",
"= . . X . X . X i ..2.Q X o X X X X X . = . X X X X o X X . . = ",
"= . . . X . . . G W ~ m Q : X . X X O O = . . X X X . X . . . = ",
"= . . . . . . . u =...] ] { =.4.2.2.D S 6 z . . X . . . . . . = ",
"= X . . . . . . > ^ N 4.4.2.4.0.2.4.2.2.>.:.- . . . . . . . X = ",
"= = = = = = = = p >.$.4.7.u.4.4.2.4.0.9.4.*.~ = = = = = = = = = ",
"= o X X o o k k o >.4.e.4.4.4.4.4.4.4.4.0.4.R q o o o o X X o = ",
"= X X X X ^ * * s U i.4.4 4.4 4.4.4 4.4 4.4._ v o o X X X . X = ",
"= X X X 5 , 2 2 j %.u.4.4.4 4.4.4.4.4 4.4.7.5.2.o X X X X X . = ",
"= . X . 3 w ] K X.4.4.4.4 4.4 4.4.4 4.4 4.4.q.) X X X X . X . = ",
"= . . X 3 w H . Z w.4.4.4.4.4.4.4.4.4.4.4.4.y.=.X . X X X . . = ",
"= . . . . . . . . O.0.4.4.4.4.5.4.4.4.4.4.n O.0 + . . . . . . = ",
"= X . . . . . . . r o.p.i.a.( R %.r.C Y ,.2.d . . . . . . . X = ",
"= = = = = = = = = = 5 7 @.4.A n x 2.o.o.E l 1 = = = = = = = = = ",
"= o X X o o o o o o o % o * * o a f g 5 t $ o o o o 5 o X X o = ",
"= X X X X o o o o o X 5 o o o o o o = o o o o o o o >.X X . X = ",
"= . X X X X X X X X X X X X X o o . = . o o X X X X X X X X . = ",
"= . . X . X X X X . X X X . X X . . = . . X X X . X X X X . . = ",
"=   . . . . . X . . . X . . . . .   =   . . . . . . . . . .   = ",
"= .                               . = .                     . = ",
"= = = = = = = = = = = = = = = = = = = = = = = = = = = = = = = = "
};
