/* XPM */
static char *slime4[] = {
/* columns rows colors chars-per-pixel */
"32 32 6 1 ",
"  c #4A8F30",
". c #59AC39",
"X c #B8E2A8",
"o c #D7EFCE",
"O c white",
"+ c None",
/* pixels */
"++++++++++++++++++++++++++++++++",
"++++++++++++++++++++++++++++++++",
"++++++++++++++++++++++++++++++++",
"++++++++++++++++++++++++++++++++",
"++++++++++++++++++++++++++++++++",
"++++++++++++++++++++++++++++++++",
"++++++++++++++++++++++++++++++++",
"++++++++++++++++++++++++++++++++",
"++++++++++++++++++++++++++++++++",
"++++++++++++++++++++++++++++++++",
"++++++++++++++++++++++++++++++++",
"++++++++++++++++++++++++++++++++",
"++++++++++++++++++++++++++++++++",
"++++++++++++++++++++++++++++++++",
"++++++++++++++++++++++++++++++++",
"++++++++++++++++++++++++++++++++",
"++++++++++++++++++++++++++++++++",
"++++++++++++++....++++++++++++++",
"++++++++++++..oooo..++++++++++++",
"+++++++++++.ooXXXXoo.+++++++++++",
"++++++++++.oXXXXXXXXo.++++++++++",
"+++++++++.oXXXXXXXXXXo.+++++++++",
"+++++++++.oXO XXXO XXo.+++++++++",
"++++++++.oXX  XXX  XXXo.++++++++",
"++++++++.oXXXXXXXXXXXXo.++++++++",
"+++++++++.oXXX   XXXXo.+++++++++",
"+++++++++.oXXXXXXXXXXo.+++++++++",
"++++++++++.oXXXXXXXXo.++++++++++",
"+++++++++++.oooooooo.+++++++++++",
"++++++++++++........++++++++++++",
"++++++++++++++++++++++++++++++++",
"++++++++++++++++++++++++++++++++"
};
