/* XPM */
static char *slime5[] = {
/* columns rows colors chars-per-pixel */
"32 32 6 1 ",
"  c #4A8F30",
". c #59AC39",
"X c #B8E2A8",
"o c #D7EFCE",
"O c white",
"+ c None",
/* pixels */
"++++++++++++++++++++++++++++++++",
"++++++++++++++++++++++++++++++++",
"++++++++++++++++++++++++++++++++",
"++++++++++++++++++++++++++++++++",
"++++++++++++++++++++++++++++++++",
"++++++++++++++++++++++++++++++++",
"++++++++++++++++++++++++++++++++",
"++++++++++++++++++++++++++++++++",
"++++++++++++++++++++++++++++++++",
"++++++++++++++++++++++++++++++++",
"++++++++++++++++++++++++++++++++",
"++++++++++++++++++++++++++++++++",
"++++++++++++++++++++++++++++++++",
"++++++++++++++++++++++++++++++++",
"++++++++++++++++++++++++++++++++",
"++++++++++++++++++++++++++++++++",
"++++++++++++++++++++++++++++++++",
"++++++++++++++++++++++++++++++++",
"++++++++++++++....++++++++++++++",
"++++++++++++..oooo..++++++++++++",
"+++++++++++.ooXXXXoo.+++++++++++",
"++++++++++.oXXXXXXXXo.++++++++++",
"+++++++++.oXO XXXO XXo.+++++++++",
"+++++++++.oX  XXX  XXo.+++++++++",
"++++++++.oXXXXXXXXXXXXo.++++++++",
"++++++++.oXXXX   XXXXXo.++++++++",
"+++++++++.oXXXXXXXXXXo.+++++++++",
"++++++++++.oooooooooo.++++++++++",
"+++++++++++..........+++++++++++",
"++++++++++++++++++++++++++++++++",
"++++++++++++++++++++++++++++++++",
"++++++++++++++++++++++++++++++++"
};
