/* XPM */
static char *ammo_shotgun_alt_32px[] = {
/* columns rows colors chars-per-pixel */
"32 32 9 1 ",
"  c #1A332C",
". c #662B29",
"X c #385140",
"o c #417455",
"O c #B64D46",
"+ c #E37840",
"@ c #55B67D",
"# c #FFBC4E",
"$ c None",
/* pixels */
"$$$$$$$$$$$$$$$$$$$$$$$$$$$$$$$$",
"$$$$$$$$$$$$$$$$$$$$$$$$$$$$$$$$",
"$$$$$$$$$$$$$$$$$$$$$$$$$$$$$$$$",
"$$$$$$$$$$$$$$$$$$$$$$$$$$$$$$$$",
"$$$$$$$$$$$$$$$$$$$$$$$$$$$$$$$$",
"$$$$$$$$$$$$$$$$$$$$$$$$$$$$$$$$",
"$$$$$$$$$$$$$o@@oX $$$$$$$$$$$$$",
"$$$$$$$o@@oX o@@oX Xo@oX $$$$$$$",
"$$$$$$$o@@oX o@@oX Xo@oX $$$$$$$",
"$$$$$$$o@@oX o@@oX Xo@oX $$$$$$$",
"$$$$$$$o@@oX o@@oX Xo@oX $$$$$$$",
"$$$$$$$o@@oX o@@oX Xo@oX $$$$$$$",
"$$$$$$$o@@oX o@@oX Xo@oX $$$$$$$",
"$$$$$$$o@@oX o@@oX Xo@oX $$$$$$$",
"$$$$$$$o@@oX o@@oX Xo@oX $$$$$$$",
"$$$$$$$o@@oX o@@oX Xo@oX $$$$$$$",
"$$$$$$$o@@oX o@@oX Xo@oX $$$$$$$",
"$$$$$$$o@@oX o@@oX Xo@oX $$$$$$$",
"$$$$$$$o@@oX o@@oX Xo@oX $$$$$$$",
"$$$$$$$o@@oX o@@oX Xo@oX $$$$$$$",
"$$$$$$$o@@oX o@@oX Xo@oX $$$$$$$",
"$$$$$$$+##+O.+##+O.O+#+O.$$$$$$$",
"$$$$$$$+##+O.+##+O.O+#+O.$$$$$$$",
"$$$$$$$+##+O.+##+O.O+#+O.$$$$$$$",
"$$$$$$$+##+O.+##+O.O+#+O.$$$$$$$",
"$$$$$$+##+++O+##+O.++##+O.$$$$$$",
"$$$$$$$$$$$$+##+++O.$$$$$$$$$$$$",
"$$$$$$$$$$$$$$$$$$$$$$$$$$$$$$$$",
"$$$$$$$$$$$$$$$$$$$$$$$$$$$$$$$$",
"$$$$$$$$$$$$$$$$$$$$$$$$$$$$$$$$",
"$$$$$$$$$$$$$$$$$$$$$$$$$$$$$$$$",
"$$$$$$$$$$$$$$$$$$$$$$$$$$$$$$$$"
};
