/* XPM */
static char *ammo_pistol_32px[] = {
/* columns rows colors chars-per-pixel */
"32 32 9 1 ",
"  c #31222A",
". c #5E4646",
"X c #7E6C54",
"o c #9C3327",
"O c #E98627",
"+ c #FFCF05",
"@ c #C0A588",
"# c #F7F4BF",
"$ c None",
/* pixels */
"$$$$$$$$$$$$$$$$$$$$$$$$$$$$$$$$",
"$$$$$$$$$$$$$$$$$$$$$$$$$$$$$$$$",
"$$$$$$$$$$$$$$$$$$$$$$$$$$$$$$$$",
"$$$$$$$$$$$$$$$$$$$$$$$$$$$$$$$$",
"$$$$$$$$$$$$$$$$$$$$$$$$$$$$$$$$",
"$$$$$$$$$$$$$$$$$$$$$$$$$$$$$$$$",
"$$$$$$$$$$$$$$$$$$$$$$$$$$$$$$$$",
"$$$$$$$$$$$$$$$$$$$$$$$$$$$$$$$$",
"$$$$$$$$$$$$$$$$$$$$$$$$$$$$$$$$",
"$$$$$$$+Oo$$+Oo$$+Oo$$+Oo$$$$$$$",
"$$$$$$+#+Oo+#+Oo+#+Oo+#+Oo$$$$$$",
"$$$$$$+++Oo+++Oo+++Oo+++Oo$$$$$$",
"$$$$$$+++Oo+++Oo+++Oo+++Oo$$$$$$",
"$$$$$$+++Oo+++Oo+++Oo+++Oo$$$$$$",
"$$$$$$X@X. X@X. X@X. X@X. $$$$$$",
"$$$$$$X@X. X@X. X@X. X@X. $$$$$$",
"$$$$$$X@X. X@X. X@X. X@X. $$$$$$",
"$$$$$$X@X. X@X. X@X. X@X. $$$$$$",
"$$$$$$X@X. X@X. X@X. X@X. $$$$$$",
"$$$$$$X@X. X@X. X@X. X@X. $$$$$$",
"$$$$$$X@X. X@X. X@X. X@X. $$$$$$",
"$$$$$$X@X. X@X. X@X. X@X. $$$$$$",
"$$$$$$$X. $$X. $$X. $$X. $$$$$$$",
"$$$$$$X@X. X@X. X@X. X@X. $$$$$$",
"$$$$$$$$$$$$$$$$$$$$$$$$$$$$$$$$",
"$$$$$$$$$$$$$$$$$$$$$$$$$$$$$$$$",
"$$$$$$$$$$$$$$$$$$$$$$$$$$$$$$$$",
"$$$$$$$$$$$$$$$$$$$$$$$$$$$$$$$$",
"$$$$$$$$$$$$$$$$$$$$$$$$$$$$$$$$",
"$$$$$$$$$$$$$$$$$$$$$$$$$$$$$$$$",
"$$$$$$$$$$$$$$$$$$$$$$$$$$$$$$$$",
"$$$$$$$$$$$$$$$$$$$$$$$$$$$$$$$$"
};
