/* XPM */
static char *ammo_rifle_alt_32px[] = {
/* columns rows colors chars-per-pixel */
"32 32 11 1 ",
"  c #622A00",
". c #626871",
"X c #854F12",
"o c #9E6520",
"O c #BA882E",
"+ c #D1AA39",
"@ c #E8D24B",
"# c #828B98",
"$ c #A6AEBA",
"% c #F7F4BF",
"& c None",
/* pixels */
"&&&&&&&&&&&&&&&&&&&&&&&&&&&&&&&&",
"&&&&&&&&&&&&&&&&&&&&&&&&&&&&&&&&",
"&&&&&&&&&&&&&&&&&&&&&&&&&&&&&&&&",
"&&&&&&&&&&&&&&&&&&&&&&&&&&&&&&&&",
"&&&&&&&&&&&&&&&&&&&&&&&&&&&&&&&&",
"&&&&&&&&&&&&&&&&&&&&&&&&&&&&&&&&",
"&&&&&&&&#&&&&#&&&&#&&&&#&&&&&&&&",
"&&&&&&&&#&&&&#&&&&#&&&&#&&&&&&&&",
"&&&&&&&$#.&&$#.&&$#.&&$#.&&&&&&&",
"&&&&&&&##.&&##.&&##.&&##.&&&&&&&",
"&&&&&&&##.&&##.&&##.&&##.&&&&&&&",
"&&&&&&&##.&&##.&&##.&&##.&&&&&&&",
"&&&&&&&@OX&&@OX&&@OX&&@OX&&&&&&&",
"&&&&&&&@OX&&@OX&&@OX&&@OX&&&&&&&",
"&&&&&&&%+o&&%+o&&%+o&&%+o&&&&&&&",
"&&&&&&O@OX O@OX O@OX O@OX &&&&&&",
"&&&&&&O@OX O@OX O@OX O@OX &&&&&&",
"&&&&&&O@OX O@OX O@OX O@OX &&&&&&",
"&&&&&&O@OX O@OX O@OX O@OX &&&&&&",
"&&&&&&O@OX O@OX O@OX O@OX &&&&&&",
"&&&&&&O@OX O@OX O@OX O@OX &&&&&&",
"&&&&&&O@OX O@OX O@OX O@OX &&&&&&",
"&&&&&&O@OX O@OX O@OX O@OX &&&&&&",
"&&&&&&O@OX O@OX O@OX O@OX &&&&&&",
"&&&&&&O@OX O@OX O@OX O@OX &&&&&&",
"&&&&&&&OX &&OX &&OX &&OX &&&&&&&",
"&&&&&&O@OX O@OX O@OX O@OX &&&&&&",
"&&&&&&&&&&&&&&&&&&&&&&&&&&&&&&&&",
"&&&&&&&&&&&&&&&&&&&&&&&&&&&&&&&&",
"&&&&&&&&&&&&&&&&&&&&&&&&&&&&&&&&",
"&&&&&&&&&&&&&&&&&&&&&&&&&&&&&&&&",
"&&&&&&&&&&&&&&&&&&&&&&&&&&&&&&&&"
};
