/* XPM */
static char *ammo_rifle_32px[] = {
/* columns rows colors chars-per-pixel */
"32 32 10 1 ",
"  c #453125",
". c #7E6144",
"X c #997951",
"o c #E98627",
"O c #FFCF05",
"+ c #B29062",
"@ c #CCA96E",
"# c #E8CB82",
"$ c #FFFAAB",
"% c None",
/* pixels */
"%%%%%%%%%%%%%%%%%%%%%%%%%%%%%%%%",
"%%%%%%%%%%%%%%%%%%%%%%%%%%%%%%%%",
"%%%%%%%%%%%%%%%%%%%%%%%%%%%%%%%%",
"%%%%%%%%%%%%%%%%%%%%%%%%%%%%%%%%",
"%%%%%%%%%%%%%%%%%%%%%%%%%%%%%%%%",
"%%%%%%%%%%%%%%%%%%%%%%%%%%%%%%%%",
"%%%%%%%%O%%%%O%%%%O%%%%O%%%%%%%%",
"%%%%%%%%O%%%%O%%%%O%%%%O%%%%%%%%",
"%%%%%%%$Oo%%$Oo%%$Oo%%$Oo%%%%%%%",
"%%%%%%%OOo%%OOo%%OOo%%OOo%%%%%%%",
"%%%%%%%OOo%%OOo%%OOo%%OOo%%%%%%%",
"%%%%%%%OOo%%OOo%%OOo%%OOo%%%%%%%",
"%%%%%%%#+.%%#+.%%#+.%%#+.%%%%%%%",
"%%%%%%%#+.%%#+.%%#+.%%#+.%%%%%%%",
"%%%%%%%$@X%%$@X%%$@X%%$@X%%%%%%%",
"%%%%%%+#+. +#+. +#+. +#+. %%%%%%",
"%%%%%%+#+. +#+. +#+. +#+. %%%%%%",
"%%%%%%+#+. +#+. +#+. +#+. %%%%%%",
"%%%%%%+#+. +#+. +#+. +#+. %%%%%%",
"%%%%%%+#+. +#+. +#+. +#+. %%%%%%",
"%%%%%%+#+. +#+. +#+. +#+. %%%%%%",
"%%%%%%+#+. +#+. +#+. +#+. %%%%%%",
"%%%%%%+#+. +#+. +#+. +#+. %%%%%%",
"%%%%%%+#+. +#+. +#+. +#+. %%%%%%",
"%%%%%%+#+. +#+. +#+. +#+. %%%%%%",
"%%%%%%%+. %%+. %%+. %%+. %%%%%%%",
"%%%%%%+#+. +#+. +#+. +#+. %%%%%%",
"%%%%%%%%%%%%%%%%%%%%%%%%%%%%%%%%",
"%%%%%%%%%%%%%%%%%%%%%%%%%%%%%%%%",
"%%%%%%%%%%%%%%%%%%%%%%%%%%%%%%%%",
"%%%%%%%%%%%%%%%%%%%%%%%%%%%%%%%%",
"%%%%%%%%%%%%%%%%%%%%%%%%%%%%%%%%"
};
