/* XPM */
static char *health_red_32px[] = {
/* columns rows colors chars-per-pixel */
"32 32 9 1 ",
"  c #5E0711",
". c #82211D",
"X c #B63C35",
"o c #E45C5F",
"O c #FF7676",
"+ c #BBAFA4",
"@ c #EADBC9",
"# c #FFF3D6",
"$ c None",
/* pixels */
"$$$$$$$$$$$$$$$$$$$$$$$$$$$$$$$$",
"$$$$$$$$$$$$$$$$$$$$$$$$$$$$$$$$",
"$$$$$$$$$$$$$$$$$$$$$$$$$$$$$$$$",
"$$$$$$$$$$$$$$$$$$$$$$$$$$$$$$$$",
"$$$$$$$$$$$$$$$$$$$$$$$$$$$$$$$$",
"$$$$$$$$$$$$$$$$$$$$$$$$$$$$$$$$",
"$$$$$$$oooooooooooooooooo$$$$$$$",
"$$$$$$OXooooooooooooooooX $$$$$$",
"$$$$$$OOXXXXXXXXXXXXXXXX  $$$$$$",
"$$$$$$OOXXXXXXXXXXXXXXXX  $$$$$$",
"$$$$$$OOXXXXXXXXXXXXXXXX  $$$$$$",
"$$$$$$OOXXXXXX###@XXXXXX  $$$$$$",
"$$$$$$OOXXXXXX#@@+XXXXXX  $$$$$$",
"$$$$$$OOXXXXXX#@@+XXXXXX  $$$$$$",
"$$$$$$OOXXX####@@@##@XXX  $$$$$$",
"$$$$$$OOXXX#@@@@@@@@+XXX  $$$$$$",
"$$$$$$OOXXX#@@@@@@@@+XXX  $$$$$$",
"$$$$$$OOXXX@++@@@++++XXX  $$$$$$",
"$$$$$$OOXXXXXX#@@+XXXXXX  $$$$$$",
"$$$$$$OOXXXXXX#@@+XXXXXX  $$$$$$",
"$$$$$$OOXXXXXX@+++XXXXXX  $$$$$$",
"$$$$$$OOXXXXXXXXXXXXXXXX  $$$$$$",
"$$$$$$OOXXXXXXXXXXXXXXXX  $$$$$$",
"$$$$$$OOXXXXXXXXXXXXXXXX  $$$$$$",
"$$$$$$OX................X $$$$$$",
"$$$$$$$..................$$$$$$$",
"$$$$$$$$$$$$$$$$$$$$$$$$$$$$$$$$",
"$$$$$$$$$$$$$$$$$$$$$$$$$$$$$$$$",
"$$$$$$$$$$$$$$$$$$$$$$$$$$$$$$$$",
"$$$$$$$$$$$$$$$$$$$$$$$$$$$$$$$$",
"$$$$$$$$$$$$$$$$$$$$$$$$$$$$$$$$",
"$$$$$$$$$$$$$$$$$$$$$$$$$$$$$$$$"
};
