/* XPM */
static char *health_armor_32px[] = {
/* columns rows colors chars-per-pixel */
"32 32 7 1 ",
"  c #1D1D21",
". c #222323",
"X c #434549",
"o c #626871",
"O c #828B98",
"+ c #A6AEBA",
"@ c None",
/* pixels */
"@@@@@@@@@@@@@@@@@@@@@@@@@@@@@@@@",
"@@@@@@@@@@@@@@@@@@@@@@@@@@@@@@@@",
"@@@@@@@@@@@@@@@@@@@@@@@@@@@@@@@@",
"@@@@@@@@@@@@@@@@@@@@@@@@@@@@@@@@",
"@@@@@@@@@@@@@@@@@@@@@@@@@@@@@@@@",
"@@@@@@@@@@@@@@@@@@@@@@@@@@@@@@@@",
"@@@@@@@@@X.. @@@@@@ ..X@@@@@@@@@",
"@@@@@@@@@.XXXo@@@@oXXX.@@@@@@@@@",
"@@@@@@@@@.ooX X@@X Xoo.@@@@@@@@@",
"@@@@@@@@@XOOo.    .oOOX@@@@@@@@@",
"@@@@@@@@@XO+O.    .O+OX@@@@@@@@@",
"@@@@@@@@@.O++o    o++O.@@@@@@@@@",
"@@@@@@@@@ oOOoXooXoOOo @@@@@@@@@",
"@@@@@@@@.  ..XoOOoX..  .@@@@@@@@",
"@@@@@@@@   ..XoOOoX..   @@@@@@@@",
"@@@@@@@@   .XoOOOOoX.   @@@@@@@@",
"@@@@@@@@   .XoOOOOoX.   @@@@@@@@",
"@@@@@@@@   ..XoOOoX..   @@@@@@@@",
"@@@@@@@.   .XoOOOOoX.   .@@@@@@@",
"@@@@@@@    .XoOOOOoX.    @@@@@@@",
"@@@@@@@Xooo..XoOOo...oooX@@@@@@@",
"@@@@@@@oOO++++OOOO++++OOo@@@@@@@",
"@@@@@@@oO+++++OOOO+++++Oo@@@@@@@",
"@@@@@@@Xo+++++oOOo+++++oX@@@@@@@",
"@@@@@@@.XoO++OoOOoO++OoX.@@@@@@@",
"@@@@@@@@   ..XXooXX..   @@@@@@@@",
"@@@@@@@@@    ..XX..    @@@@@@@@@",
"@@@@@@@@@@@@@@@@@@@@@@@@@@@@@@@@",
"@@@@@@@@@@@@@@@@@@@@@@@@@@@@@@@@",
"@@@@@@@@@@@@@@@@@@@@@@@@@@@@@@@@",
"@@@@@@@@@@@@@@@@@@@@@@@@@@@@@@@@",
"@@@@@@@@@@@@@@@@@@@@@@@@@@@@@@@@"
};
