/* XPM */
static char * chainmail_chestplate_xpm[] = {
"16 16 12 1",
" 	c None",
".	c #352C26",
"+	c #322924",
"@	c #3F322C",
"#	c #4C4742",
"$	c #615852",
"%	c #80756B",
"&	c #4B3C33",
"*	c #3D3734",
"=	c #574C46",
"-	c #706963",
";	c #44403B",
"                ",
"  ..++    ++..  ",
" +@@.##$$$%.@@+ ",
" +@&&$**##$&&@+ ",
" ++.@=$**$@@.++ ",
" =+++$=-$@@+++= ",
" ;$*.=-=&&+.*$; ",
"  #;.$=&&+=.;#  ",
"   *.=&&+=-@*   ",
"   ;.@&+=%$@;   ",
"   ;@@+$%$-.;   ",
"   .@+$-$%$.+   ",
"   +@@&&&&@++   ",
"    ++++++++    ",
"                ",
"                "};
