/* XPM */
static char * chainmail_boots_xpm[] = {
"16 16 15 1",
" 	c None",
".	c #56453A",
"+	c #4B3C33",
"@	c #382E28",
"#	c #3F322C",
"$	c #322924",
"%	c #544C48",
"&	c #443E3B",
"*	c #615852",
"=	c #80756B",
"-	c #706963",
";	c #302C29",
">	c #6D655D",
",	c #645C54",
"'	c #383330",
"                ",
"                ",
"                ",
"   .+@    @+.   ",
"  @#.#@  @#.#@  ",
"  $$@$$  $$@$$  ",
"   %&&&  &&&%   ",
"   *=-*  *-=*   ",
"   =*=%  %=*=   ",
"  %&-%;  ;%-&%  ",
" %>,&';  ;'&,>% ",
" '%>';    ;'>%' ",
" '&;;      ;;&' ",
"                ",
"                ",
"                "};
