/* XPM */
static char * chainmail_helmet_xpm[] = {
"16 16 13 1",
" 	c None",
".	c #574C46",
"+	c #47423E",
"@	c #2D2621",
"#	c #362D27",
"$	c #615852",
"%	c #41342E",
"&	c #756D64",
"*	c #3F3A36",
"=	c #3A3532",
"-	c #302C29",
";	c #706963",
">	c #80756B",
"                ",
"                ",
"       .+       ",
"    @@#$+@@@    ",
"   @@%#&+#@@@   ",
"   @##%&+##@@   ",
"   .$&&&+.$$*   ",
"   ==--&+--==   ",
"   .*-=&+=-$+   ",
"   ;*-=$+==>*   ",
"   .+-*===*$+   ",
"   $*-=*=*=;*   ",
"   .*      .*   ",
"                ",
"                ",
"                "};
