/* XPM */
static char * chainmail_leggings_xpm[] = {
"16 16 12 1",
" 	c None",
".	c #352C26",
"+	c #382E28",
"@	c #3F322C",
"#	c #2D2621",
"$	c #44362E",
"%	c #4B3C33",
"&	c #574C46",
"*	c #44403B",
"=	c #615852",
"-	c #706963",
";	c #80756B",
"                ",
"    ..+@@+..    ",
"  +@.######.@+  ",
"  +$$+$%@@+$$+  ",
"  +%@.@$@+.@%+  ",
"   +...++...+   ",
"   @+.&*=&.+@   ",
"   +@&-=&-&@+   ",
"    *-=**=-*    ",
"    &=;  ;=&    ",
"    *;=  =;*    ",
"    &=;  ;=&    ",
"    *-=  =-*    ",
"    **&  &**    ",
"                ",
"                "};
