/* XPM */
static char * feather_xpm[] = {
"16 16 7 1",
" 	c None",
".	c #D8AB70",
"+	c #B18C5C",
"@	c #8E6F47",
"#	c #5E482B",
"$	c #7C613E",
"%	c #413019",
"                ",
"                ",
"        . +..+  ",
"       +.+@#$+  ",
"     + .+##++   ",
"     .++#@+@    ",
"    +.@#+.$     ",
"    .+#@.++     ",
"   .+#@+$       ",
"   +#@+..+      ",
"   @#+.+        ",
"   #@+$         ",
"  %#            ",
"  #%            ",
"                ",
"                "};
