/* XPM */
static char * ghast_tear_xpm[] = {
"16 16 7 1",
" 	c None",
".	c #73798E",
"+	c #8D95AC",
"@	c #A4ACC2",
"#	c #5A6072",
"$	c #C7CDDF",
"%	c #F6FCFC",
"                ",
"                ",
"       .        ",
"                ",
"       .        ",
"       +        ",
"      .+.       ",
"      .@.       ",
"     #@$@#      ",
"     .+@$.      ",
"     #++%#      ",
"     #.$+#      ",
"      ##.       ",
"                ",
"                ",
"                "};
