/* XPM */
static char * heart_of_the_sea_xpm[] = {
"16 16 7 1",
" 	c None",
".	c #4F646B",
"+	c #364950",
"@	c #28363A",
"#	c #2E3D41",
"$	c #222D31",
"%	c #1C2528",
"                ",
"    .+   @+     ",
"    #.# @#$     ",
"   @$.+$#$%     ",
"   $$++%#%@++   ",
"    @+#%$@..@   ",
"   $+#$%+..$    ",
"   @+$$+..$@+   ",
"   @#$+.+@#+$   ",
"   @$#++#$#$    ",
"    @##+@$$%    ",
"    $##@$@$%    ",
"     $@@@$%     ",
"      $@$%%     ",
"       $%%      ",
"                "};
