/* XPM */
static char * heart_xpm[] = {
"8 8 7 1",
" 	c None",
".	c #AD3E34",
"+	c #782320",
"@	c #CF5646",
"#	c #8C2C27",
"$	c #872D25",
"%	c #601C1A",
"        ",
"  .+ ++ ",
" .@.##+#",
" $.####+",
" +####+%",
"  ++#+% ",
"   ++%  ",
"    %   "};
