/* XPM */
static char * magma_cream_xpm[] = {
"16 16 14 1",
" 	c None",
".	c #53603F",
"+	c #4D512F",
"@	c #F1C130",
"#	c #657450",
"$	c #688246",
"%	c #A9C483",
"&	c #7D3D08",
"*	c #3E4414",
"=	c #EC9B0B",
"-	c #AD690A",
";	c #994C0A",
">	c #CF7E0B",
",	c #5D2A09",
"                ",
"                ",
"                ",
"                ",
"                ",
"       .++      ",
"   @  #$$++     ",
"     .%%$.&*    ",
"  =  #%$.-;& >  ",
"     ##;>;>&    ",
"    =,;>>=;,&   ",
"   -;>,;>;,,&;  ",
"     ,&,,,,     ",
"                ",
"                ",
"                "};
