/* XPM */
static char * omamori_2_xpm[] = {
"32 32 14 1",
" 	c None",
".	c #EAF5F9",
"+	c #CCDBE2",
"@	c #34634E",
"#	c #407C47",
"$	c #45934A",
"%	c #963030",
"&	c #B3C5D1",
"*	c #2A4C42",
"=	c #D1B85E",
"-	c #54331F",
";	c #AF8243",
">	c #AA3636",
",	c #906536",
"                                ",
"                                ",
"                                ",
"                                ",
"                                ",
"                                ",
"                     ....       ",
"                   ..    ..     ",
"                  .        .    ",
"                  .         .   ",
"                 .          .   ",
"                 .          +   ",
"                 .         +    ",
"            @@@@.        ++     ",
"           @##$$+     +++       ",
"          @%%$..&* &&&          ",
"         @##$.@@.@&==           ",
"        @##$@$+.@&-;;           ",
"       @%%@@=@;.#+--            ",
"      @##@==@=@@.@#*            ",
"     @##$@;@=@##%%#*            ",
"    @%%$$@;@@####%*             ",
"   @##>$@;@#%####*              ",
"    *$$@,@;@#%%#*               ",
"     *$@,@@###%*                ",
"      *#@,@###*                 ",
"       *#@@%#*                  ",
"        *##%*                   ",
"         *@*                    ",
"          *                     ",
"                                ",
"                                "};
