/* XPM */
static char * omamori_1_xpm[] = {
"32 32 13 1",
" 	c None",
".	c #EAF5F9",
"+	c #CCDBE2",
"@	c #49619B",
"#	c #4A71B5",
"$	c #4785CC",
"%	c #495D93",
"&	c #B3C5D1",
"*	c #404C7A",
"=	c #2F3854",
"-	c #D1B85E",
";	c #AF8243",
">	c #906536",
"                                ",
"                                ",
"                                ",
"                                ",
"                                ",
"                                ",
"                     ....       ",
"                   ..    ..     ",
"                  .        .    ",
"                  .         .   ",
"                 .          .   ",
"                 .          +   ",
"                 .         +    ",
"            @@@@.        ++     ",
"           @#$%$+     +++       ",
"          @#$$..&* &&&          ",
"         @%%@.==.#&             ",
"        @#$%$=+.=&#*            ",
"       @#$$@=-=.=+%*            ",
"      @%%@@=;=-=.=#*            ",
"     @#=$==#=;=#=##*            ",
"    @#=;=--=#==%%#*             ",
"   @%%@==;=##%##%*              ",
"    *$$=>=###%##*               ",
"     *#==>=%%%#*                ",
"      *%#==##%*                 ",
"       *##%##*                  ",
"        **%#*                   ",
"         #**                    ",
"          *                     ",
"                                ",
"                                "};
