/* XPM */
static char * omamori_3_xpm[] = {
"32 32 11 1",
" 	c None",
".	c #EAF5F9",
"+	c #CCDBE2",
"@	c #93333A",
"#	c #A83232",
"$	c #BF2F2A",
"%	c #B3C5D1",
"&	c #752E3A",
"*	c #D1B85E",
"=	c #AF8243",
"-	c #906536",
"                                ",
"                                ",
"                                ",
"                                ",
"                                ",
"                                ",
"                     ....       ",
"                   ..    ..     ",
"                  .        .    ",
"                  .         .   ",
"                 .          .   ",
"                 .          +   ",
"                 .         +    ",
"            @@@@.        ++     ",
"           @##$$+     +++       ",
"          @##$..%& %%%          ",
"         @##$.@@.@%             ",
"        @##$$@+.@%@&            ",
"       @##$@@*=.#+@&            ",
"      @##$@*@*@@.@#&            ",
"     @##$$@@=@##@##&            ",
"    @##$@@=@@#####&             ",
"   @##$@-=@=@####&              ",
"    &$$@-@#@@###&               ",
"     &##@-@####&                ",
"      &##@####&                 ",
"       &#####&                  ",
"        &###&                   ",
"         &@&                    ",
"          &                     ",
"                                ",
"                                "};
