/* XPM */
static char * popped_chorus_fruit_xpm[] = {
"16 16 7 1",
" 	c None",
".	c #343035",
"+	c #272327",
"@	c #3F3A3F",
"#	c #4D474E",
"$	c #201D20",
"%	c #5B555D",
"                ",
"                ",
"                ",
"      ...+      ",
"    ..@@@.++    ",
"   ..@#@#@+$+   ",
"   .#%##@#.+$   ",
"  .##@%#@..$+$  ",
"  ..###@.@++$$  ",
"  +..#@..++$$$  ",
"   +....+$$$$   ",
"    +++$$$$+    ",
"      $$$+      ",
"                ",
"                ",
"                "};
