/* XPM */
static char * prismarine_shard_xpm[] = {
"16 16 6 1",
" 	c None",
".	c #5E676B",
"+	c #464F53",
"@	c #384042",
"#	c #293231",
"$	c #1B2320",
"                ",
"                ",
"                ",
"      ..        ",
"     .+.        ",
"    .+@.#       ",
"   .##@+#       ",
"  @+@#.+$@@     ",
"  #+@+.@$+.@    ",
"  #$@++@$..@@   ",
"   $#@+#$.@+@   ",
"     $$# @+@$   ",
"   @      #$$   ",
"      #         ",
"                ",
"                "};
