/* XPM */
static char * basalt_top_xpm[] = {
"16 16 6 1",
" 	c #49443F",
".	c #3F3B38",
"+	c #38332F",
"@	c #676159",
"#	c #544F4A",
"$	c #302C28",
"   .+@@#++..+###",
" #@+@##  + #+.# ",
"@@.+## # .# .+.#",
".  .#@# #.+..$++",
"  # .#@@ .@@ +$.",
"## @$+...@#   $.",
" @@ +$$+.### #++",
".+.#@@#$+## #@  ",
"#+#@## #$.#@@  #",
"@.@#  # .++.. ##",
"..###  . @@#++#@",
".+.@ #..@@ # $+.",
"++$.@@# @##  +$$",
"@#+$$++.##  @.#@",
"###++# $.##@.#@#",
"# #.$. ++..++@##"};
