/* XPM */
static char * black_terracotta_xpm[] = {
"16 16 7 1",
" 	c #211D1C",
".	c #1A1917",
"+	c #262220",
"@	c #1C1A18",
"#	c #181615",
"$	c #2B2724",
"%	c #141211",
" .   .+   @   ..",
"#   +   .+ + @  ",
".$    ..#.    @ ",
". + + @ @@ + @@@",
" @  .  @ @. ++. ",
"    #@@   #.. #+",
".@ @@.+       .#",
" @ + # $ +@@    ",
"+ + @ ...@ @+ + ",
".    @  @    + @",
".. .@ +  @.+   #",
"   @  @ @ # $+. ",
" @@ @+    ##..+@",
"  @  @++ .+ #   ",
" @  #  .#  +% + ",
"+  #.+  .  .#. $"};
