/* XPM */
static char * cake_plate_xpm[] = {
"16 16 5 1",
" 	c #595147",
".	c #675F55",
"+	c #7D7569",
"@	c #888074",
"#	c #9A9083",
"  .  . . .....  ",
" ++@@@#@####@++ ",
" @  . .++...  @.",
" @ .++@+@@@+. #.",
".# ++@@@#@#@+.# ",
".#.+@#@#@@@+@ #.",
".@.@###@#@+++.# ",
".#.#@#@@@@@+@.#.",
".@+@@@@+@@+@@+@ ",
".#.@+@+@#@#@#+# ",
" @+@++@@@###@.# ",
".@.++@+@#@#@+.# ",
" @ .+@@###@+. @.",
".@   ..++. .  #.",
" ++@#@#@####@++ ",
"  ...     . .   "};
