/* XPM */
static char * chiseled_quartz_block_xpm[] = {
"16 16 9 1",
" 	c #BCB5A9",
".	c #C8C4B7",
"+	c #DCD9D4",
"@	c #E4E0DD",
"#	c #D1CEC6",
"$	c #9E9787",
"%	c #ADA694",
"&	c #837B6C",
"*	c #918978",
"  . ........    ",
"+@@@@++@@@@@@@+@",
"..##..###...###.",
"$$$%%%%$$$%%%%%%",
"@@@+++..###++@@@",
"&***&*%++*&&&&*&",
"%+@#*%@&*#*%@#+*",
".#%*#%#*%.%#*%#.",
"*%#%*+*#.%+*%#**",
"##++#+@@@@+#++##",
"$$$$%%%%%%$$$$$$",
"@@@++++@@@@@@@@@",
"%$%$%$%$%$%$%$%$",
"# #%# + #%# # # ",
"@@+++@@@@@@@++@@",
"******$$*****$$*"};
