/* XPM */
static char * chiseled_quartz_block_top_xpm[] = {
"16 16 8 1",
" 	c #E4E0DD",
".	c #DCD9D4",
"+	c #C8C4B7",
"@	c #D5D3CC",
"#	c #D1CEC6",
"$	c #BCB5A9",
"%	c #ADA694",
"&	c #9E9787",
"   .   +  .  ..+",
" .@###@$ ..@##.$",
" @#@###$ .@##@.+",
" #@###.$ @##@..$",
" ####..%.#@@...$",
" ###..@%.@@...@$",
"  .  @@&....@@@$",
"%%%&&&&&%%%%&&&&",
"...  ..$  .....+",
" @@@...$ @###@.+",
" @....@$ ###@@.+",
" ...@.@%.##@@..$",
".....@@$.##@...$",
" ...@##%.#@...@$",
"   ...@%.....@@$",
"$%&&&&&&%%%&&&&&"};
