/* XPM */
static char * cobble_wall_top_xpm[] = {
"16 16 8 1",
" 	c #888074",
".	c #7D7569",
"+	c #675F55",
"@	c #4C4137",
"#	c #B2A79B",
"$	c #42392F",
"%	c #9A9083",
"&	c #595147",
" .+@.# . .+$.#  ",
"  +$+%  . +$.%. ",
" .+$+  . .+@+% .",
"&&&$&&+++&&@++&&",
"$@$$@$$@@$$$@$@$",
"#%.$.###%%.$.###",
". .@ #% . .$ #% ",
"  +@.# %  +$ % %",
". +$+% . .+@.%. ",
" .&$&%... +$+% .",
". +$&. . .+$&   ",
"+&&@&+++&+&@&&&+",
"$@@@@$$$$@@@@$@$",
"%% @%####%.@%##%",
". .$ # % .+$ #. ",
"  .$.#% . +@ % ."};
