/* XPM */
static char * light_gray_concrete_xpm[] = {
"16 16 6 1",
" 	c #938A7F",
".	c #7C7368",
"+	c #888074",
"@	c #A0968B",
"#	c #72695F",
"$	c #B2A79B",
"  .+@@    .+++  ",
"@@. @ @+ +. +@ @",
"@ +     ++#   @@",
"+++++++...##.+++",
"@@$$@+    ++++  ",
" @@ @. @ + + + +",
"+ + +. @@@   .  ",
"+..###..+++##..+",
" @++ @@@ @@   @@",
"@ .+++ +  @++  @",
"+ . +++  ++.+ ++",
"++....##..+... +",
"@@@    # ++ @@@ ",
"@+++ + .++   @@ ",
"  + +  .+ ++@ + ",
"+..++........++ "};
