/* XPM */
static char * quartz_block_chiseled_alt_xpm[] = {
"16 16 9 1",
" 	c #ADA694",
".	c #BCB5A9",
"+	c #918978",
"@	c #E4E0DD",
"#	c #D1CEC6",
"$	c #DCD9D4",
"%	c #C8C4B7",
"&	c #837B6C",
"*	c #D5D3CC",
"   . .  .....  +",
" @@@@@@@@@@@@@@+",
" @++ + @#   ++@+",
" $+@@@  ..$$$ @+",
".@+@ $#$$#@ $ @+",
" @ $$$. .%@@@ @+",
" @  #. ...%#. @&",
".@@ $  @@..$.@@+",
".@#.$ .$#. $.#$&",
".@+.#%... %#. *&",
".@+$@@% .%@@$ *&",
" @ $.@#$$#$.$ *+",
".@ @@@....$@@.$+",
".@  .  $#.  ..$&",
".@@@$$$$**$$$$$&",
"+++&+&&&&++&&&&&"};
