/* XPM */
static char * quartz_slab_xpm[] = {
"16 16 6 1",
" 	c #E4E0DD",
".	c #DCD9D4",
"+	c #C8C4B7",
"@	c #D5D3CC",
"#	c #D1CEC6",
"$	c #BCB5A9",
"   .      .  ..+",
" .@###@....@##.$",
" @#@###...@##@.+",
" #@###...@##@..$",
" ####...@#@@...$",
" ###..@@@@@...@$",
".@@..@##@@..@@@$",
"+$$$$$$++++$$$$$",
".         .  ..+",
" @#@@@.@@####@.$",
" #@...@@###@@@@+",
" @...@@@#@@@#@.+",
" ...@#@#@@##@..$",
" ..##@.@@##@..@$",
"..##@...##@..@@$",
"+$$$$$$$$$$+$+$$"};
