/* XPM */
static char * quartz_pillar_top_xpm[] = {
"16 16 10 1",
" 	c #ADA694",
".	c #BCB5A9",
"+	c #E4E0DD",
"@	c #C8C4B7",
"#	c #D1CEC6",
"$	c #D5D3CC",
"%	c #DCD9D4",
"&	c #837B6C",
"*	c #918978",
"=	c #9E9787",
"   . .  ........",
" ++++++++++++++.",
" +@@###@@####$+@",
" %@&&&*&&&&&*%+.",
".+@&  ...    $+.",
" +@& ++++++* %+.",
" +#&.+$$$$+* %%.",
".+#* +#%$#+*.+%.",
".+#& +%$##+*.+%@",
".+@&.+$##$%&.+$@",
".+@*.+++%%%& +$@",
" +@* ***&*&&.+$.",
".+#*   ... ..+%.",
".+%%%+++++++++%.",
".$$$%%$$$$%%%%%.",
". =====    ====="};
