/* XPM */
static char * quartz_block_bottom_xpm[] = {
"16 16 3 1",
" 	c #DCD9D4",
".	c #D5D3CC",
"+	c #D1CEC6",
" ...+++.   ...  ",
". .+++.    .+.  ",
"..+.+++   .++.  ",
".+.+++   .++.  .",
".++++   .+..   .",
"+.++  .....   ..",
"..+  ...... ....",
".+ .... .. ...+.",
"...... .. .+.+..",
" ...   ...+++.. ",
"..    ...+++..  ",
".   . ..+++..  .",
"     ..++++.   .",
"  . .+++++.   ..",
"   .+++++.   .+.",
"  ...+++.   .++ "};
