/* XPM */
static char * quartz_bricks_xpm[] = {
"16 16 6 1",
" 	c #DCD9D4",
".	c #E4E0DD",
"+	c #C8C4B7",
"@	c #D1CEC6",
"#	c #D5D3CC",
"$	c #BCB5A9",
"  .... + ... .  ",
"@@@# # $. #@@###",
"@@###  $.#@@#  @",
"@##   #+.@#   #@",
"###  #@+ #   #@@",
"##  @@#+ ##   @#",
"# #@@##$     ###",
"+$$$$+$$+++$$$$$",
" ......... ..  +",
".#@### ##@@@@# $",
".@#   ##@@@####+",
".#   ###@###@# +",
".   #@#@##@@#  $",
".  @@# ##@@#  #$",
"  @@#   @@#  ##$",
"+$$$$$$$$$$+$+$$"};
