/* XPM */
static char * quartz_pillar_xpm[] = {
"16 16 7 1",
" 	c #BCB5A9",
".	c #E4E0DD",
"+	c #C8C4B7",
"@	c #ADA694",
"#	c #D1CEC6",
"$	c #9E9787",
"%	c #DCD9D4",
" .+@+.#$ .#$ .#$",
" %#@+%#@ .#$+.#$",
" .#@ %+@+.+$+.#@",
" .#@ .+$+%+@+.#@",
"+.+@ .#$ %+@+.+@",
"+.+@+.#@ .+@ .+$",
"+.+$+.+@ .#@+.+$",
"+.#$+.+@+.#@ .#$",
"+.#$+.#@+.#@ %#$",
"+%#@+.+@+%#@ .#@",
"+%+@+.#@+.#$ .#$",
"+.+@+.#@+.+$ .+@",
" .#@+%#@+.+$+%+@",
"+.#$+.#@ .+$ %+$",
" .+$ .#$ .+@ .+$",
" %+$ .#$ .+$+.+$"};
