/* XPM */
static char * stone_bricks_xpm[] = {
"16 16 9 1",
" 	c #A3998C",
".	c #B2A79B",
"+	c #9A9083",
"@	c #7D7569",
"#	c #4C4137",
"$	c #888074",
"%	c #595147",
"&	c #42392F",
"*	c #675F55",
" .    +@#@ .... ",
"@@@++$$%&$.+$@$$",
"$@$+$@$%#@.$+$$$",
"@$$$@$+*#$ +$+@+",
"+$+$$+$%&@ $+$$$",
"@$$@+$@%&*@$@$@$",
"**%***%%&%%%%%%%",
"&#&&###&&&&&##&#",
"#$+...... + +$@@",
"&$.+++$+$+$$$@$@",
"&@.$+$$$$$@$@$@*",
"&@ $@$$+$@$@$+$*",
"&@+@@@$@$$$$+$+*",
"&*@$@$@$$+$+++$%",
"&%%**%*%%*%%**%%",
"&&#&&&#####&#&##"};
