/* XPM */
static char * stonebrick2_xpm[] = {
"16 16 10 1",
" 	c #B2A79B",
".	c #9A9083",
"+	c #888074",
"@	c #42392F",
"#	c #7D7569",
"$	c #4C4137",
"%	c #675F55",
"&	c #595147",
"*	c #383027",
"=	c #A3998C",
" ..+@.   ..#@.  ",
"+#+#$+ +.+#%@+ .",
".++#@# .+#+%$+ +",
"+.#%$#.+#+#%$# .",
".++%$%.++.+%@# +",
"#+#%$%+#.+#%$%.+",
"&&&&@&&%%%&&$%%&",
"@$@@$$@@***@$$@$",
"$#    .#$#    =#",
"@+ .+.+#$+ .+.+#",
"*# +.++%@+ +.++%",
"@%=+#+#%$# #+.+%",
"@&.###+%$%=+#+#&",
"@&#+#+#%@&+++#+%",
"*&%%%&%&$&&&%%&&",
"@@$@@@$$$$$@$@$$"};
