/* XPM */
static char *shrek[] = {
/* columns rows colors chars-per-pixel */
"64 64 240 2 ",
"   c #1B1C0D",
".  c #35180E",
"X  c #231B15",
"o  c #361C12",
"O  c #1F200E",
"+  c #21230F",
"@  c #232412",
"#  c #252911",
"$  c #2B2D13",
"%  c #24231C",
"&  c #2B2718",
"*  c #312F15",
"=  c #372D1B",
"-  c #2E3213",
";  c #2E311D",
":  c #333514",
">  c #3B3515",
",  c #353B16",
"<  c #393D16",
"1  c #34341A",
"2  c #3A351B",
"3  c #363B1B",
"4  c #3B3C1B",
"5  c #292823",
"6  c #2C2D24",
"7  c #362E25",
"8  c #2E3025",
"9  c #333224",
"0  c #3B3324",
"q  c #3C3E23",
"w  c #34342C",
"e  c #3C352B",
"r  c #3A3B29",
"t  c #431C0F",
"y  c #4E2F17",
"u  c #433B15",
"i  c #463718",
"p  c #433E1B",
"a  c #4B3C1B",
"s  c #463A26",
"d  c #553F2A",
"f  c #433C30",
"g  c #3A4117",
"h  c #37421A",
"j  c #3D431A",
"k  c #3E4A1C",
"l  c #374127",
"z  c #3B4423",
"x  c #3D4924",
"c  c #3C452B",
"v  c #3E4A2B",
"b  c #3E4833",
"n  c #4B4216",
"m  c #42441C",
"M  c #484518",
"N  c #4B441A",
"B  c #444A1D",
"V  c #564617",
"C  c #5B4C16",
"Z  c #53431A",
"A  c #544B1B",
"S  c #5C4C1B",
"D  c #5C5118",
"F  c #5B521C",
"G  c #654A1C",
"H  c #634C1C",
"J  c #63541A",
"K  c #685519",
"L  c #65591C",
"P  c #6C5B1C",
"I  c #765A1D",
"U  c #735C1C",
"Y  c #76631C",
"T  c #7B641D",
"R  c #7D691E",
"E  c #444422",
"W  c #4A4426",
"Q  c #444B23",
"!  c #434D2B",
"~  c #544B22",
"^  c #594628",
"/  c #525124",
"(  c #454536",
")  c #414C35",
"_  c #424D3A",
"`  c #534633",
"'  c #435133",
"]  c #45513D",
"[  c #674A29",
"{  c #685626",
"}  c #6D522E",
"|  c #755C22",
" . c #795A27",
".. c #725A2C",
"X. c #684D32",
"o. c #785A33",
"O. c #7D6322",
"+. c #7A6527",
"@. c #622E77",
"#. c #622878",
"$. c #66357B",
"%. c #693C7C",
"&. c #544E4D",
"*. c #445242",
"=. c #4B5747",
"-. c #5C5756",
";. c #665D5B",
":. c #596151",
">. c #6D674B",
",. c #676659",
"<. c #5F4F64",
"1. c #655968",
"2. c #6C447E",
"3. c #6A4B79",
"4. c #734C7E",
"5. c #6D5877",
"6. c #745A7B",
"7. c #6B6668",
"8. c #766A69",
"9. c #756776",
"0. c #797375",
"q. c #805E1F",
"w. c #82651D",
"e. c #89671E",
"r. c #846B1D",
"t. c #8A6D1D",
"y. c #916E1D",
"u. c #8C731E",
"i. c #8A741E",
"p. c #93741D",
"a. c #9A761D",
"s. c #947A1E",
"d. c #9C7A1E",
"f. c #A27B1E",
"g. c #855B2C",
"h. c #836523",
"j. c #856B21",
"k. c #8C6D23",
"l. c #86672A",
"z. c #8B6C2C",
"x. c #926D23",
"c. c #9A6E2C",
"v. c #8C7322",
"b. c #897422",
"n. c #947323",
"m. c #9A7524",
"M. c #937B23",
"N. c #9C7C23",
"B. c #97742B",
"V. c #9C7A2A",
"C. c #8B6436",
"Z. c #966738",
"A. c #8D763A",
"S. c #9B7737",
"D. c #A37C24",
"F. c #A27C2B",
"G. c #AA7D28",
"H. c #A57935",
"J. c #B67C3A",
"K. c #95724B",
"L. c #AA7546",
"P. c #AC7544",
"I. c #88687B",
"U. c #87787A",
"Y. c #917572",
"T. c #A07C74",
"R. c #9F851F",
"E. c #9C8223",
"W. c #9E852B",
"Q. c #A38323",
"!. c #AC8424",
"~. c #AC8B23",
"^. c #A78728",
"/. c #AB842B",
"(. c #B38C25",
"). c #B6872A",
"_. c #B58B2C",
"`. c #BA8D2B",
"'. c #AD9128",
"]. c #B49225",
"[. c #B79527",
"{. c #BD9A25",
"}. c #BC932A",
"|. c #BC9A2B",
" X c #AA8634",
".X c #B68A34",
"XX c #BC9333",
"oX c #C39C25",
"OX c #C4942C",
"+X c #C59D2A",
"@X c #C89B28",
"#X c #C99631",
"$X c #C59933",
"%X c #C69837",
"&X c #CC9C33",
"*X c #CCA426",
"=X c #CBA32B",
"-X c #C8A529",
";X c #D4A628",
":X c #D2A52C",
">X c #D4AC2D",
",X c #D9AC2D",
"<X c #D6B12D",
"1X c #DCB22D",
"2X c #CDA536",
"3X c #D2A533",
"4X c #D4AA32",
"5X c #DBAB33",
"6X c #D8A539",
"7X c #DBAC3B",
"8X c #DCB133",
"9X c #E3B22D",
"0X c #E2AC35",
"qX c #E8B636",
"wX c #F1BB36",
"eX c #948056",
"rX c #A98A48",
"tX c #B98B4C",
"yX c #998576",
"uX c #A88668",
"iX c #AA8B75",
"pX c #B19670",
"aX c #BAA476",
"sX c #C69046",
"dX c #DCAA42",
"fX c #D3AF4D",
"gX c #E5B54A",
"hX c #CC9F65",
"jX c #CDA966",
"kX c #CDAA6B",
"lX c #DBB865",
"zX c #EBB064",
"xX c #724C81",
"cX c #765784",
"vX c #7C6685",
"bX c #7E7183",
"nX c #8A6D81",
"mX c #887388",
"MX c #9D8C8C",
"NX c #B2988F",
/* pixels */
"#.#.#.#.#.#.#.#.#.#.#.#.#.#.#.#.#.#.#.#.#.#.#.#.#.@.9.MXeXeX>.L L F ..:.7.5.xX#.#.#.#.#.#.#.#.#.#.#.#.#.#.#.#.#.#.#.#.#.#.#.#.#.",
"#.#.#.#.#.#.#.#.#.#.#.#.#.#.#.#.#.#.#.#.#.#.#.@.mXyX+.R Y Y Y L L F A B k h ] <.xX@.#.#.#.#.#.#.#.#.#.#.#.#.#.#.#.#.#.#.#.#.#.#.",
"#.#.#.#.#.#.#.#.#.#.#.#.#.#.#.#.#.#.#.#.#.#.9.iXM.i.i.r.t.r.T U P D D M h h l l *.1.xX@.#.#.#.#.#.#.#.#.#.#.#.#.#.#.#.#.#.#.#.#.",
"#.#.#.#.#.#.#.#.#.#.#.#.#.#.#.#.#.#.#.#.@.MX XE.M.s.p.e.y.t.w.Y Y F F A B l l c b *.7.xX#.#.#.#.#.#.#.#.#.#.#.#.#.#.#.#.#.#.#.#.",
"#.#.#.#.#.#.#.#.#.#.#.#.#.#.#.#.#.#.#.cXpXQ.d.Q.m.d.d.p.y.t.w.T U P F A M q z c b *.=.:.5.@.#.#.#.#.#.#.#.#.#.#.#.$.Y.8.7.5.#.#.",
"#.#.#.#.#.#.#.#.#.#.#.#.#.#.#.#.#.#.2.uX^.Q.Q.Q.Q.d.a.p.p.w.w.T U K J S B m z c b *.*.*.=.5.#.#.#.#.#.#.#.#.#.#.#.T.[ d w =.xX#.",
"#.#.#.#.#.#.#.#.#.#.#.#.#.#.#.#.#.@.pX'.'.~.!.Q.f.f.a.a.p.y.w.w.U K J A m z z z b *.=.b b =.3.#.#.#.#.#.#.#.#.#.nXH.s 0 e f &.xX",
"#.#.#.#.#.#.#.#.#.#.#.#.#.#.#.#.@.iX[.].~.~.!.Q.d.a.a.a.p.a.y.T Y P L F M j q c v b *.] b b :.2.#.#.#.#.#.#.#.#.T.Z.s e e w f 5.",
"#.#.#.#.#.#.#.#.#.#.#.#.#.#.#.#.mXfX[.~.R.R.R.d.p.p.s.s.p.s.u.r.r.Y Y L F Q l c ) _ ' ) v x z 1.#.#.#.#.#.#.#.cX.Xg.s e e w f ;.",
"#.I.tXU.$.#.#.#.#.#.#.#.#.#.#.#.aX|.'.~.~.s.u.r.r.i.s.s.s.s.s.r.T P L F S A z ) ) *.] ) v h h v 5.#.#.#.#.#.#.uX Xo.( r w w ^ ;.",
"#.pXD.l.7.cX#.#.#.#.#.#.#.#.#.MX_.E.s.s.s.d.p.r.t.t.p.a.d.a.u.u.p.u.R Y P ~ m z v ' _ ' b x h h -.@.#.#.#.#.nXV. Xo.W e 6 a  .U.",
"NXc.g.z.^ ,.xX#.#.#.#.#.#.6.U.} O.r.R T r.p.a.r.Y t.s.f.f.a.a.D.n.I H V a i a 4 b ' ' ' v x h k h 9.#.#.#.3.` l.l.o...^ ^ ~ [ mX",
"NXg...l.X.^ 8.$.#.#.#.#.mX..S Z Z } T t.T T y.x.y.a.f.f.D.f.D.k.S Z n V a V u i 4 c ) ' ! x k l z :.%.%.1.6 w f ^ s 2 = ( 7.cX$.",
"uXo.X.+.} ^ q 1.%.#.#.mXW i { +.F A {  .x.x.e.y.a.d.f.f.!.^.I V n Z C D V n i > = * q ) ' v x x l z 1.&.5 w w 5 w 7.9.cX%.#.#.#.",
"rX} X.+...^ s q 9.#.#.9.{ M.^.~.E.b.J S  .m.n.k.p.D.f.(./.h.Z n n F K J J n < > > : $ 3 v ' v x l q ; 6 w w 7 7.cX#.#.#.#.#.#.#.",
"H.+.| z.` d s w 8 7.vXmXW.'.|.[.'.Q.E.O.I x.F.n.V.N.V.!.v.Z u i n C J K C M , : , 1 * : h l x x k h 9 9 w 6 9.xX#.#.#.#.#.#.#.#.",
"iXV.g.s = 7 e f W W ` K.W.|.|.'.W.E.s.i.Y r.M.V./.V.v.B.P 4 2 * - n V C a : - $ - - - 1 , h k v k , 1 9 = 0.#.#.#.#.#.#.#.#.#.#.",
"#.4.5.1.<.<.-.X..... .n.'.'.^.E.i.R T Y Y r.k.V.F.V.| O.n > $ # + $ > n u : # # $ $ - - : , h k z h , - *.2.#.#.#.#.#.#.#.#.#.#.",
"#.#.#.#.#.#.#.4.8.h.l.(.W.W.E.i.Y P K D J T u.n.F.n.| V > # # # + + > C J n 1 $ # # # - - , j j x k h , 7.#.#.#.#.#.#.#.#.#.#.#.",
"#.#.#.#.#.#.#.#.@.5.K.'.W.i.R R Y P D V V P r.x.V.n.I > $ # # # + u U w.U H p 2 - # # # - : 3 m Q v k k ! vX#.#.#.#.#.#.#.#.#.#.",
"#.#.#.#.#.#.#.#.#.#.I.[.v.w.t.V.m.t.P ~ p H j.n.m.e.P > $ $ $ # # V I V t 2 7 = = $ $ $ $ : < m Q ! Q k k 0.#.#.#.#.#.#.#.#.#.#.",
"#.#.#.#.#.#.#.#.#.#.xX.Xt.R h.g.| G ^ ^ 2 i T F.G.m.I i : * * $ $ G y . . t e e w = = : : 4 p B Q ! ! x k 7.#.#.#.#.#.#.#.#.#.#.",
"#.#.#.#.#.#.#.#.#.#.I.(.t.h.P.L.. . t f s i J ).`.F.x.H 1 : - $ o Z.g.X X y 7 6 0 2 1 : 1 4 p M B / ! Q k :.cX#.#.#.#.#.#.#.#.#.",
"#.#.#.#.#.#.#.#.#.#.iXOXD.F.zXrX2 X t s e s [ ).`./.x.P 4 1 3 1 = } X.. . t s s = : 1 : > z E Q B B Q ! k k mX@.#.#.#.#.#.#.#.#.",
"#.#.#.#.#.#.#.#.#.#.hX#XOXG.sXL.o o t s s 2 h.OX).m.t.T A c l r 2 S g.e. .G y 2 > * 1 a V M E ! Q Q B Q k k 9.#.#.#.#.#.#.#.#.#.",
"#.#.#.#.#.#.#.#.#.4.dXOXG.OXJ.Z.[ y y a = I ).).m.n.j.O.{ ~ m 4 4 2 Z K G G i > u H U r.Y A E Q Q Q Q B k k bX#.#.#.#.#.#.#.#.#.",
"#.#.#.#.#.#.#.#.#.T.:XOXG.G.G.G.x.q.[ a t.).!.N.n.j.w.P A j l l q 4 M N ~ P | I w.p.m.j.L M E M B / Q Q k k ;.#.#.#.#.#.#.#.#.#.",
"#.#.#.#.#.#.#.#.#.hX:XOX).G.f.c.q.I m.`.`.(.D.V.m.m.v.O.{ ! _ ( c q 4 N S K U w.t.n.k.| ~ E B Q B B B Q k B -.#.#.#.#.#.#.#.#.#.",
"#.#.#.#.#.#.#.#.xXgX;X#X).G.G.G.G.`.&X2X%X.XH./.V.B.z.+.{ E z ! c c c q a ~ H | w.k.h.{ W E E M B B B B k k ,.@.#.#.#.#.#.#.#.#.",
"#.#.#.#.#.#.#.#.T.wX0X#X).).).).`.OX%X&XsX.X XH.F.S.z.l.{ r q 4 z j 3 h $ 2 a ~ { { { / ! W Q B B B B B k k Q vX#.#.#.#.#.#.#.#.",
"#.#.#.#.#.#.#.#.aXwXwX0X#XOX#X#XOXF.&X3XsX.X.X/.V.B.l.I ~ 3 3 4 4 4 4 4 : + $ 1 4 s W W W E m B M k B B k j x 6.#.#.#.#.#.#.#.#.",
"#.#.#.#.#.#.#.#.hXwXgXgX0X6X%X%XB.w.&XOX}. XH.F.B.x.h.{ a 1 1 : : 1 : : :   @ : : 3 2 4 4 E m k M M B B k k k 5.#.#.#.#.#.#.#.#.",
"#.#.#.#.#.#.#.#.zXwXwXgXdXsXXXa.H I `.!.`.G.F.D.x.e.I H > : : # @ X O $ 1 1   O # : : : > < < m m M g m B k k bX#.#.#.#.#.#.#.#.",
"#.#.#.#.#.#.#.#.gXwXqXgX7X}.D.w.u K t.V h.F.x.k.h.K C > $ $ $ * - : > 4 q j E 1 X   O $ $ : : , > g g j k k k 9.#.#.#.#.#.#.#.#.",
"#.#.#.#.#.#.#.#.fXwX6X3X|.D.I n Z ^.OXm.h.I h.G y #       * < 1 > 4 4 4 p p 4 E E 4 1 @   # $ , , < < m k B k 7.#.#.#.#.#.#.#.#.",
"#.#.#.#.#.#.#.#.lX0X3X{.D.T u G `.3X&X&X`.G.D.p.e.K H G C a u 4 4 4 s j j q p m 4 m m E < # $ : , < < m B Q k 7.#.#.#.#.#.#.#.#.",
"#.#.#.#.#.#.#.#.hX9X@X).t.u C OX0X6X&X&X%X.X/.D.y.a.m.D.G.V.O...F ~ B s s m 4 4 4 4 p m B p , , < < g M j B Q 0.#.#.#.#.#.#.#.#.",
"#.#.#.#.#.#.#.#.jX,X=X!.U a @X9X5X0X0X0X2X%XXXV.k.c.F.).`.$XF.z.+.{ ~ E j z z 4 4 > 4 4 B B m < h j j k B k Q 0.#.#.#.#.#.#.#.#.",
"#.#.#.#.#.#.#.#.lX,X@X~.U !.wX,X6X0XdX6X%X%X%XV.z.H./._.$X$X.Xz.+.{ W j z m 4 4 : > $ 1 p m m j j m j B j j B 8.#.#.#.#.#.#.#.#.",
"#.#.#.#.#.#.#.#.lX1X=X|.a.,XwX,X6X0X6X0XdX2X%XV.B.F.)..XXX$X[.l.{ / E j j 3 1 $ & & $ < g m k j m j m m B k k -.#.#.#.#.#.#.#.#.",
"#.#.#.#.#.#.#.#.gXqX<X2X'.qX,X@X=X6X7XdXdX7X2X XB.F./..X}.$X/.+./ Q q 3 1 & % 5 5 % 1 m j j B m m j j k k g k 9.#.#.#.#.#.#.#.#.",
"#.#.#.#.#.#.#.#.lXwX<X<X-X9X).y.+X3X3X7XdX2X2X XV.F././._. XA./ q 9 & & 5 8 8 5 % = 4 j h k j j g k g j g h h 6.#.#.#.#.#.#.#.#.",
"#.#.#.#.#.#.#.#.lXwXqX8X2X8X@X$Xc./.$X%XsX%XtXrXS.S.S.Z.z.X.; % X 5 8 w % 6 6 & = 1 j m g j k g k g g g g h h vX#.#.#.#.#.#.#.#.",
"#.#.#.#.#.#.#.#.kX9X1X8X2X8X4X<X_.c.g. ...{ [ [ d = 5 % % 5 w w 5 6 6 5 X 5 2 s 4 < m B g k g k g k g g g , ' cX#.#.#.#.#.#.#.#.",
"#.#.#.#.#.#.#.#.aX9X>X>X-X<X<X1X=X).H.Z. .d i X s 5 5 5 7 7 w w 6 5 w ` [ o.[ Z 4 h B m j g h g g j k g h , 7.#.#.#.#.#.#.#.#.#.",
"#.#.#.#.#.#.#.#.MX8X<X>X4X*X<X<X*X@X).J.P.P.Z.C.g.o.g.d ^ ` X.[ X.o.C.Z.C.[ m h < j j j g g g g g j g < , , 7.#.#.#.#.#.#.#.#.#.",
"#.#.#.#.#.#.#.#.4.gX<X>X<X2X>X>X;X-X+XXX%XsXP.P.P.Z.P.Z.K.K.K.Z.Z.C.o.[ s 3 3 , < g g g g g g g g h g < : &.xX#.#.#.#.#.#.#.#.#.",
"#.#.#.#.#.#.#.#.@.pX8X>X4X-X*X<X*XoX{.XX/. XJ.J.H.Z.Z.Z.Z.g.g...[ d 2 1 , , , , < g g , g g g g g g g , c 6.#.#.#.#.#.#.#.#.#.#.",
"#.#.#.#.#.#.#.#.#.I.qX4X<X-X-X>X*X*X{.{.{.'.Q.E.R Y P L J A u : - , , , , , , , g , , < g g g g g g , - 9.#.#.#.#.#.#.#.#.#.#.#.",
"#.#.#.#.#.#.#.#.#.@.gX4X8X>X-X-X*X*X{.{.].].~.E.E.Y P F A M 3 - - - - , - , - , , , , < < g g g < , , 8.$.#.#.#.#.#.#.#.#.#.#.#.",
"#.#.#.#.#.#.#.#.#.#.kX0X5X4X-X-X*XoX{.{.].~.R.R.i.Y L A M m - - - - , - : : - , - , < < g g g g , , :.2.#.#.#.#.#.#.#.#.#.#.#.#.",
"#.#.#.#.#.#.#.#.#.#.mXwX0X5X3X=XoXoX~.].].~.R.R.i.Y D A u > - - - - - - - : - , , , < g g g g g , 7.xX#.#.#.#.#.#.#.#.#.#.#.#.#.",
"#.#.#.#.#.#.#.#.#.#.#.lXqXqX7X4X@X*X].~.~.~.Q.M.i.P J n : : - $ - - - - - : : : , < g g g g g , 7.3.#.#.#.#.#.#.#.#.#.#.#.#.#.#.",
"#.#.#.#.#.#.#.#.#.#.#.T.qX8X7X4X=X@X*X].~.~.R.s.i.Y D n > : $ $ - - - - : , , , < g m g g g , ,.xX#.#.#.#.#.#.#.#.#.#.#.#.#.#.#.",
"#.#.#.#.#.#.#.#.#.#.#.#.jX9X7X3X&X=X*XoXoX}.~.!.R.t.Y K V n u < , - g , < 4 < g m m g g < < *.cX@.#.#.#.#.#.#.#.#.#.#.#.#.#.#.#.",
"#.#.#.#.#.#.#.#.#.#.#.#.nXfX4X4X6X:X;X*XoX@X@X{.~.R.p.w.Y P U P J C g g < j j m g g M < < ( vX#.#.#.#.#.#.#.#.#.#.#.#.#.#.#.#.#.",
"#.#.#.#.#.#.#.#.#.#.#.#.#.MX@X3X2X3X,X:X*X=X=X@X{.`.Q.s.v.v.v.v.u.Y A M j j j j j < g , z nX#.#.#.#.#.#.#.#.#.#.#.#.#.#.#.#.#.#.",
"#.#.#.#.#.#.#.#.#.#.#.#.#.#.iX-X+X+X=X:X*X=X=X@X+X|.~.E.v.M.E.E.s.T A m k j j j h < , q bX#.#.#.#.#.#.#.#.#.#.#.#.#.#.#.#.#.#.#.",
"#.#.#.#.#.#.#.#.#.#.#.#.#.#.#.uXoXoXoX=X@X@X-X{.}.'.W.E.b.b.M.M.i.{ B , 3 3 3 < , , c bX#.#.#.#.#.#.#.#.#.#.#.#.#.#.#.#.#.#.#.#.",
"#.#.#.#.#.#.#.#.#.#.#.#.#.#.@.@.Y.[.{.oXoXoX{.{.'.Q.E.b.Y O.O.Y L M , , , : , , 1 c bX#.#.#.#.#.#.#.#.#.#.#.#.#.#.#.#.#.#.#.#.#.",
"#.#.#.#.#.#.#.#.#.#.#.#.#.#.#.#.#.U.rX(.].].[.[.(.N.n.R P L L F A 4 : ; : - - - ) vX#.#.#.#.#.#.#.#.#.#.#.#.#.#.#.#.#.#.#.#.#.#.",
"#.#.#.#.#.#.#.#.#.#.#.#.#.#.#.#.#.#.6.eXR.~.~.Q.Q.M.r.Y F A M m 3 - - $ $ $ b 7.cX#.#.#.#.#.#.#.#.#.#.#.#.#.#.#.#.#.#.#.#.#.#.#.",
"#.#.#.#.#.#.#.#.#.#.#.#.#.#.#.#.#.#.#.#.I.K.M.u.u.r.P A 3 : - - $ # @ 8 -.5.cX#.#.#.#.#.#.#.#.#.#.#.#.#.#.#.#.#.#.#.#.#.#.#.#.#.",
"#.#.#.#.#.#.#.#.#.#.#.#.#.#.#.#.#.#.#.#.#.$.9.Y.8.,.W - w =.;.-.bX0.5.cX#.#.#.#.#.#.#.#.#.#.#.#.#.#.#.#.#.#.#.#.#.#.#.#.#.#.#.%."
};
