/* XPM */
static char *wall1[] = {
/* columns rows colors chars-per-pixel */
"64 64 4 1 ",
"  c #2F2E2F",
". c #3E2F5A",
"X c #564064",
"o c #85578E",
/* pixels */
"                                                                ",
"    oooooooooooooooooooooo      oooooooooooooooooooooooooooooo  ",
"    oooooooooooooooooooooo      oooooooooooooooooooooooooooooo  ",
"  ooooooooooooXXXXoooooooooo  ooooooooooooooooooooXXXXoooooooooo",
"  ooooooooooooXXXXoooooooooo  ooooooooooooooooooooXXXXoooooooooo",
"  ooooXXooXXXXXXXXXXooXXoooo  ooooXXXXooXXXXXXooXXXXXXXXooXXoooo",
"  ooooXXooXXXXXXXXXXooXXoooo  ooooXXXXooXXXXXXooXXXXXXXXooXXoooo",
"  oo..XXXXXXXX....XXXXXX..oo  oo..XXXXXXXX..XXXXXX......XXXX..oo",
"  oo..XXXXXXXX....XXXXXX..oo  oo..XXXXXXXX..XXXXXX......XXXX..oo",
"  ......XXXX....XXXXXX......  ......XXXX......XXXXXXXXXXXX......",
"  ......XXXX....XXXXXX......  ......XXXX......XXXXXXXXXXXX......",
"  ..........................  ......................XXXX........",
"  ..........................  ......................XXXX........",
"    ......................      ..............................  ",
"    ......................      ..............................  ",
"                                                                ",
"                                                                ",
"oooooo      oooooooooooooooooooooooooooo      oooooooooooooooooo",
"oooooo      oooooooooooooooooooooooooooo      oooooooooooooooooo",
"oooooooo  ooooooXXooooooooooooooooXXoooooo  ooooooooooooXXoooooo",
"oooooooo  ooooooXXooooooooooooooooXXoooooo  ooooooooooooXXoooooo",
"XXXXoooo  ooooXXXXXXXXooXXXXXXooXXXXXXoooo  ooooXXXXooXXXXXXXXoo",
"XXXXoooo  ooooXXXXXXXXooXXXXXXooXXXXXXoooo  ooooXXXXooXXXXXXXXoo",
"XXXXXXoo  ooXXXX..XXXXXXXXXXXX..XXXXXXXXoo  ooXXXXXXXXXX..XXXX..",
"XXXXXXoo  ooXXXX..XXXXXXXXXXXX..XXXXXXXXoo  ooXXXXXXXXXX..XXXX..",
"..XXXX..  ..XXXXXX..XXXX....XXXX..XXXXXX..  ..XXXXXXXX....XXXXXX",
"..XXXX..  ..XXXXXX..XXXX....XXXX..XXXXXX..  ..XXXXXXXX....XXXXXX",
"XXXX....  ....XXXXXXXX....XXXXXX....XX....  ....XX......XXXX..XX",
"XXXX....  ....XXXXXXXX....XXXXXX....XX....  ....XX......XXXX..XX",
"XX......  ......XX..........XX............  ....................",
"XX......  ......XX..........XX............  ....................",
"......      ............................      ..................",
"......      ............................      ..................",
"                                                                ",
"                                                                ",
"  oooooooooooooooooooooooooooo      oooooooooooooooooooooooo    ",
"  oooooooooooooooooooooooooooo      oooooooooooooooooooooooo    ",
"ooooooooooooooooXXoooooooooooooo  ooooooooooooXXooooooXXoooooo  ",
"ooooooooooooooooXXoooooooooooooo  ooooooooooooXXooooooXXoooooo  ",
"ooooXXXXooXXXXXXXXXXXXooXXXXoooo  ooooXXXXooXXXXXXooXXXXXXoooo  ",
"ooooXXXXooXXXXXXXXXXXXooXXXXoooo  ooooXXXXooXXXXXXooXXXXXXoooo  ",
"oo..XXXXXXXXXXXX..XX..XXXXXX..oo  oo..XXXXXXXXXXXX..XXXXXX..oo  ",
"oo..XXXXXXXXXXXX..XX..XXXXXX..oo  oo..XXXXXXXXXXXX..XXXXXX..oo  ",
"......XXXXXXXX....XXXXXXXX......  ......XX....XXXXXXXXXX......  ",
"......XXXXXXXX....XXXXXXXX......  ......XX....XXXXXXXXXX......  ",
"........XX............XX........  ..................XX........  ",
"........XX............XX........  ..................XX........  ",
"  ............................      ........................    ",
"  ............................      ........................    ",
"                                                                ",
"                                                                ",
"oooooooooooooo      oooooooooooooooooooooooo      oooooooooooooo",
"oooooooooooooo      oooooooooooooooooooooooo      oooooooooooooo",
"ooooXXoooooooooo  ooooooooooooXXoooooooooooooo  ooooooooooooXXoo",
"ooooXXoooooooooo  ooooooooooooXXoooooooooooooo  ooooooooooooXXoo",
"ooXXXXXXXXXXXXoo  ooXXXXooXXXXXXXXooXXXXXXoooo  ooooXXXXooXXXXXX",
"ooXXXXXXXXXXXXoo  ooXXXXooXXXXXXXXooXXXXXXoooo  ooooXXXXooXXXXXX",
"XXXXXXXXXX..XXXX  XXXXXXXXXXXX..XXXXXXXX....oo  oo....XXXXXXXXXX",
"XXXXXXXXXX..XXXX  XXXXXXXXXXXX..XXXXXXXX....oo  oo....XXXXXXXXXX",
"................  ............................  ............XXXX",
"................  ............................  ............XXXX",
"..............      ........................      ..............",
"..............      ........................      ..............",
"                                                                "
};
