/* XPM */
static char *wall0[] = {
/* columns rows colors chars-per-pixel */
"64 64 5 1 ",
"  c #2F2E2F",
". c #3E2F5A",
"X c #564064",
"o c #85578E",
"O c #BE9BB0",
/* pixels */
"                                                                ",
"  ooOOOOOOOOOOOOOOOOOOOOoo  ooOOOOOOOOOOOOOOOOOOOOOOOOOOOOOOoo  ",
"  ooOOOOOOOOOOOOOOOOOOOOoo  ooOOOOOOOOOOOOOOOOOOOOOOOOOOOOOOoo  ",
"  OOooooooooooooooooooooOO  OOooooooooooXXooooooXXooooooooooOO  ",
"  OOooooooooooooooooooooOO  OOooooooooooXXooooooXXooooooooooOO  ",
"  ooooXXXXXXXXooXXXXXXoooo  ooooXXXXooXXXXXXooXXXXXXXXooXXoooo  ",
"  ooooXXXXXXXXooXXXXXXoooo  ooooXXXXooXXXXXXooXXXXXXXXooXXoooo  ",
"  ooXXXXXXXXXXXXXXXX....oo  oo....XXXXXXXXXXXXXXXXXXXXXXXXXXoo  ",
"  ooXXXXXXXXXXXXXXXX....oo  oo....XXXXXXXXXXXXXXXXXXXXXXXXXXoo  ",
"  XXooXXXX................  ............XXXX..........XXXXXXXX  ",
"  XXooXXXX................  ............XXXX..........XXXXXXXX  ",
"  ..XXXX................      ..........................XXXX..  ",
"  ..XXXX................      ..........................XXXX..  ",
"                                                                ",
"                                                                ",
"  XXooooooooooooooooooooooooooooooooooooooooooooooooooooooooXX  ",
"  XXooooooooooooooooooooooooooooooooooooooooooooooooooooooooXX  ",
"  ooooooooooooooooooooooooooooXXXXoooooooooooooooooooooooooooo  ",
"  ooooooooooooooooooooooooooooXXXXoooooooooooooooooooooooooooo  ",
"  ooooXXXXXXooXXXXooXXXXXXooXXXXXXXXooXXooooXXooooXXooXXXXoooo  ",
"  ooooXXXXXXooXXXXooXXXXXXooXXXXXXXXooXXooooXXooooXXooXXXXoooo  ",
"  ooXXooXXXXXXXXXXXXXX..XXXXXX......XXXXXXXXXXXXXXXXXXXXooXXoo  ",
"  ooXXooXXXXXXXXXXXXXX..XXXXXX......XXXXXXXXXXXXXXXXXXXXooXXoo  ",
"  ooXXXXXXXXXX..XXXX......XXXXXXXXXXXX....XXXX..XX..XXXXXXXXXX  ",
"  ooXXXXXXXXXX..XXXX......XXXXXXXXXXXX....XXXX..XX..XXXXXXXXXX  ",
"  XXooXXXXXX....................XXXX..................XXXXXXXX  ",
"  XXooXXXXXX....................XXXX..................XXXXXXXX  ",
"  ..XXXX................................................XXXX..  ",
"  ..XXXX................................................XXXX..  ",
"                                                                ",
"                                                                ",
"  XXoooooooooooooooo      ooooooooooooooooooooooooooooooooooXX  ",
"  XXoooooooooooooooo      ooooooooooooooooooooooooooooooooooXX  ",
"  ooooooooooooXXoooooo  ooooooooooooXXoooooooooooooooooooooooo  ",
"  ooooooooooooXXoooooo  ooooooooooooXXoooooooooooooooooooooooo  ",
"  ooooooXXooXXXXXXoooo  ooooXXXXooXXXXXXXXooXXXXooooooXXoooooo  ",
"  ooooooXXooXXXXXXoooo  ooooXXXXooXXXXXXXXooXXXXooooooXXoooooo  ",
"  ooooXXXX..XXXXXXXXoo  ooXXXXXXXXXX..XXXX..XXXXXXooXXooXXoooo  ",
"  ooooXXXX..XXXXXXXXoo  ooXXXXXXXXXX..XXXX..XXXXXXooXXooXXoooo  ",
"  ooXXooXXXX..XXXXXX..  ..XXXXXXXX....XXXXXX..XXXXXXXXXXXXXXoo  ",
"  ooXXooXXXX..XXXXXX..  ..XXXXXXXX....XXXXXX..XXXXXXXXXXXXXXoo  ",
"  ooXXXXXXXX....XX....  ....XX......XXXX..XXXXXX....XXXXXXXXXX  ",
"  ooXXXXXXXX....XX....  ....XX......XXXX..XXXXXX....XXXXXXXXXX  ",
"  XXooXXXX............  ....................XX........XXXXXXXX  ",
"  XXooXXXX............  ....................XX........XXXXXXXX  ",
"  ..XX..............      ..............................XXXX..  ",
"  ..XX..............      ..............................XXXX..  ",
"                                                                ",
"                                                                ",
"  XXooooooooooooooooooooooooooooooooooooooooooooooooooooooooXX  ",
"  XXooooooooooooooooooooooooooooooooooooooooooooooooooooooooXX  ",
"  ooooooXXooooooooooooooooXXooooooXXoooooooooooooooooooooooooo  ",
"  ooooooXXooooooooooooooooXXooooooXXoooooooooooooooooooooooooo  ",
"  ooooooooXXooooooXXXXooXXXXXXooXXXXXXooooooooooXXXXooooXXoooo  ",
"  ooooooooXXooooooXXXXooXXXXXXooXXXXXXooooooooooXXXXooooXXoooo  ",
"  ooooXXXXoo..oo..XXXXXXXXXXXX..XXXXXXXXooXXooXXXXXXXXXXoooooo  ",
"  ooooXXXXoo..oo..XXXXXXXXXXXX..XXXXXXXXooXXooXXXXXXXXXXoooooo  ",
"  ooXXXXXXXX........XX....XXXXXXXXXX..XXXXXXXXXX..XXXXXXXXXXoo  ",
"  ooXXXXXXXX........XX....XXXXXXXXXX..XXXXXXXXXX..XXXXXXXXXXoo  ",
"  XXooXXXX......................XX..................XXXXXXXXXX  ",
"  XXooXXXX......................XX..................XXXXXXXXXX  ",
"  ..XX..................................................XXXX..  ",
"  ..XX..................................................XXXX..  ",
"                                                                "
};
