/* XPM */
static char *wall3[] = {
/* columns rows colors chars-per-pixel */
"64 64 5 1 ",
"  c #2F2E2F",
". c #3E2F5A",
"X c #564064",
"o c #85578E",
"O c #BE9BB0",
/* pixels */
"                                                                ",
"                                                                ",
"OOOOOOOOOOOOOOOOOOOOOOOOOOOOoo    ooOOOOOOOOOOOOOOOOOOOOoo  ooOO",
"OOOOOOOOOOOOOOOOOOOOOOOOOOOOoo    ooOOOOOOOOOOOOOOOOOOOOoo  ooOO",
"ooooooooXXooooooXXooooooooooOO    OOooooooooooooooooooooOO  OOoo",
"ooooooooXXooooooXXooooooooooOO    OOooooooooooooooooooooOO  OOoo",
"XXXXooXXXXXXooXXXXXXXXooXXoooo    ooooXXXXXXXXooXXXXXXoooo  oooo",
"XXXXooXXXXXXooXXXXXXXXooXXoooo    ooooXXXXXXXXooXXXXXXoooo  oooo",
"..XXXXXXXXXXXXXXXXXXXXXXXXXXoo    ooXXXXXXXXXXXXXXXX....oo  oo..",
"..XXXXXXXXXXXXXXXXXXXXXXXXXXoo    ooXXXXXXXXXXXXXXXX....oo  oo..",
"........XXXX..........XXXXXXXX    XXooXXXX................  ....",
"........XXXX..........XXXXXXXX    XXooXXXX................  ....",
"........................XXXX..    ..XXXX................      ..",
"........................XXXX..    ..XXXX................      ..",
"                                                                ",
"                                                                ",
"ooooooooooooooooooooooooooooXX    XXoooooooooooooooooooooooooooo",
"ooooooooooooooooooooooooooooXX    XXoooooooooooooooooooooooooooo",
"XXoooooooooooooooooooooooooooo    ooooooooooooooooooooooooooooXX",
"XXoooooooooooooooooooooooooooo    ooooooooooooooooooooooooooooXX",
"XXXXooXXooooXXooooXXooXXXXoooo    ooooXXXXXXooXXXXooXXXXXXooXXXX",
"XXXXooXXooooXXooooXXooXXXXoooo    ooooXXXXXXooXXXXooXXXXXXooXXXX",
"....XXXXXXXXXXXXXXXXXXXXooXXoo    ooXXooXXXXXXXXXXXXXX..XXXXXX..",
"....XXXXXXXXXXXXXXXXXXXXooXXoo    ooXXooXXXXXXXXXXXXXX..XXXXXX..",
"XXXXXX....XXXX..XX..XXXXXXXXXX    ooXXXXXXXXXX..XXXX......XXXXXX",
"XXXXXX....XXXX..XX..XXXXXXXXXX    ooXXXXXXXXXX..XXXX......XXXXXX",
"XXXX..................XXXXXXXX    XXooXXXXXX....................",
"XXXX..................XXXXXXXX    XXooXXXXXX....................",
"........................XXXX..    ..XXXX........................",
"........................XXXX..    ..XXXX........................",
"                                                                ",
"                                                                ",
"ooooooooooooooooooooooooooooXX    XXoooooooooooooooo      oooooo",
"ooooooooooooooooooooooooooooXX    XXoooooooooooooooo      oooooo",
"ooooXXoooooooooooooooooooooooo    ooooooooooooXXoooooo  oooooooo",
"ooooXXoooooooooooooooooooooooo    ooooooooooooXXoooooo  oooooooo",
"ooXXXXXXXXooXXXXooooooXXoooooo    ooooooXXooXXXXXXoooo  ooooXXXX",
"ooXXXXXXXXooXXXXooooooXXoooooo    ooooooXXooXXXXXXoooo  ooooXXXX",
"XXXX..XXXX..XXXXXXooXXooXXoooo    ooooXXXX..XXXXXXXXoo  ooXXXXXX",
"XXXX..XXXX..XXXXXXooXXooXXoooo    ooooXXXX..XXXXXXXXoo  ooXXXXXX",
"XX....XXXXXX..XXXXXXXXXXXXXXoo    ooXXooXXXX..XXXXXX..  ..XXXXXX",
"XX....XXXXXX..XXXXXXXXXXXXXXoo    ooXXooXXXX..XXXXXX..  ..XXXXXX",
"....XXXX..XXXXXX....XXXXXXXXXX    ooXXXXXXXX....XX....  ....XX..",
"....XXXX..XXXXXX....XXXXXXXXXX    ooXXXXXXXX....XX....  ....XX..",
"............XX........XXXXXXXX    XXooXXXX............  ........",
"............XX........XXXXXXXX    XXooXXXX............  ........",
"........................XXXX..    ..XX..............      ......",
"........................XXXX..    ..XX..............      ......",
"                                                                ",
"                                                                ",
"ooooooooooooooooooooooooooooXX    XXoooooooooooooooooooooooooooo",
"ooooooooooooooooooooooooooooXX    XXoooooooooooooooooooooooooooo",
"ooXXoooooooooooooooooooooooooo    ooooooXXooooooooooooooooXXoooo",
"ooXXoooooooooooooooooooooooooo    ooooooXXooooooooooooooooXXoooo",
"XXXXXXooXXooooooXXXXooooXXoooo    ooooooooXXooooooXXXXooXXXXXXoo",
"XXXXXXooXXooooooXXXXooooXXoooo    ooooooooXXooooooXXXXooXXXXXXoo",
"XXXXXXXXXXXXooXXXXXXXXXXoooooo    ooXXXXXXoo..oo..XXXXXXXXXXXX..",
"XXXXXXXXXXXXooXXXXXXXXXXoooooo    ooXXXXXXoo..oo..XXXXXXXXXXXX..",
"XXXX....XX..XXXX..XXXXXXXXXXXX    XXXXXXXXXX........XX....XXXXXX",
"XXXX....XX..XXXX..XXXXXXXXXXXX    XXXXXXXXXX........XX....XXXXXX",
"XX..................XXXXXXXX..    ..XXXXXX......................",
"XX..................XXXXXXXX..    ..XXXXXX......................",
"                                                                ",
"                                                                "
};
