/* XPM */
static char *wall2[] = {
/* columns rows colors chars-per-pixel */
"64 64 6 1 ",
"  c #2F2E2F",
". c #302C2E",
"X c #3E2F5A",
"o c #564064",
"O c #85578E",
"+ c #BE9BB0",
/* pixels */
"                                                                ",
"  ++++++++++++++++++++++++      OOOOOOOOOOOOOOOOOOOOOOOOOOOO    ",
"  ++++++++++++++++++++++++      OOOOOOOOOOOOOOOOOOOOOOOOOOOO    ",
"OOooooOOOOOOOOOOOOOOOOooooOO  OOOOOOOOOOOOOOOOOOOOOOOOooOOOOOO  ",
"OOooooOOOOOOOOOOOOOOOOooooOO  OOOOOOOOOOOOOOOOOOOOOOOOooOOOOOO  ",
"XXXXooooOOooOOOOooooooooXXXX  ooooooOOOOooooOOooooOOooooooooOO  ",
"XXXXooooOOooOOOOooooooooXXXX  ooooooOOOOooooOOooooOOooooooooOO  ",
"  XXXXooooooooooooooooXXXX    ooooXXXXooXXooXXXXoooooooooooooo  ",
"  XXXXooooooooooooooooXXXX    ooooXXXXooXXooXXXXoooooooooooooo  ",
"      XXXXooXXXXooXXXX        XXXXXXXXXXXXXXXXXXXXXXXXooooXXXX  ",
"      XXXXooXXXXooXXXX        XXXXXXXXXXXXXXXXXXXXXXXXooooXXXX  ",
"          XXXXXXXX              XXXXXXXXXXXXXXXXXXXXXXXXXXXX    ",
"          XXXXXXXX              XXXXXXXXXXXXXXXXXXXXXXXXXXXX    ",
"                                                                ",
"                                                                ",
"OOOOOOOOOOOOOOOOOOOO      OOOOOOOOOOOOOOOOOOOOOOOOOOOOOO      OO",
"OOOOOOOOOOOOOOOOOOOO      OOOOOOOOOOOOOOOOOOOOOOOOOOOOOO      OO",
"OOOOOOOOooooOOOOOOOOOO  OOOOOOOOOOOOOOOOOOOOooooOOOOOOOOOO  OOOO",
"OOOOOOOOooooOOOOOOOOOO  OOOOOOOOOOOOOOOOOOOOooooOOOOOOOOOO  OOOO",
"ooOOooooooooooOOooOOOO  OOOOooooOOooooooOOooooooooOOooOOOO  OOOO",
"ooOOooooooooooOOooOOOO  OOOOooooOOooooooOOooooooooOOooOOOO  OOOO",
"ooooooooXXXXooooooXXOO  OOXXooooooooXXooooooXXXXXXooooXXOO  OOXX",
"ooooooooXXXXooooooXXOO  OOXXooooooooXXooooooXXXXXXooooXXOO  OOXX",
"XXooooXXXXooooooXXXXXX  XXXXXXooooXXXXXXooooooooooooXXXXXX  XXXX",
"XXooooXXXXooooooXXXXXX  XXXXXXooooXXXXXXooooooooooooXXXXXX  XXXX",
"XXXXXXXXXXXXXXXXXXXXXX  XXXXXXXXXXXXXXXXXXXXXXooooXXXXXXXX  XXXX",
"XXXXXXXXXXXXXXXXXXXXXX  XXXXXXXXXXXXXXXXXXXXXXooooXXXXXXXX  XXXX",
"XXXXXXXXXXXXXXXXXXXX      XXXXXXXXXXXXXXXXXXXXXXXXXXXXXX      XX",
"XXXXXXXXXXXXXXXXXXXX      XXXXXXXXXXXXXXXXXXXXXXXXXXXXXX      XX",
"                                                                ",
"                                                                ",
"      OOOOOOOOOOOOOOOOOOOOOOOOOOOO      OOOOOOOOOOOOOOOOOOOOOOOO",
"      OOOOOOOOOOOOOOOOOOOOOOOOOOOO      OOOOOOOOOOOOOOOOOOOOOOOO",
"OO  OOOOOOooOOOOOOOOOOOOOOOOooOOOOOO  OOOOOOOOOOOOooOOOOOOOOOOOO",
"OO  OOOOOOooOOOOOOOOOOOOOOOOooOOOOOO  OOOOOOOOOOOOooOOOOOOOOOOOO",
"OO  OOOOooooooooOOooooooOOooooooOOOO  OOOOooooOOooooooooOOooooOO",
"OO  OOOOooooooooOOooooooOOooooooOOOO  OOOOooooOOooooooooOOooooOO",
"OO  OOooooXXooooooooooooXXooooooooOO  OOooooooooooXXooooXXoooooo",
"OO  OOooooXXooooooooooooXXooooooooOO  OOooooooooooXXooooXXoooooo",
"XX  XXooooooXXooooXXXXooooXXooooooXX  XXooooooooXXXXooooooXXoooo",
"XX  XXooooooXXooooXXXXooooXXooooooXX  XXooooooooXXXXooooooXXoooo",
"XX  XXXXooooooooXXXXooooooXXXXooXXXX  XXXXooXXXXXXooooXXooooooXX",
"XX  XXXXooooooooXXXXooooooXXXXooXXXX  XXXXooXXXXXXooooXXooooooXX",
"XX  XXXXXXooXXXXXXXXXXooXXXXXXXXXXXX  XXXXXXXXXXXXXXXXXXXXooXXXX",
"XX  XXXXXXooXXXXXXXXXXooXXXXXXXXXXXX  XXXXXXXXXXXXXXXXXXXXooXXXX",
"      XXXXXXXXXXXXXXXXXXXXXXXXXXXX      XXXXXXXXXXXXXXXXXXXXXXXX",
"      XXXXXXXXXXXXXXXXXXXXXXXXXXXX      XXXXXXXXXXXXXXXXXXXXXXXX",
"                                                                ",
"                                                                ",
"OOOOOOOOOOOOOOOOOOOOOOOO      OOOOOOOOOOOOOOOOOOOOOOOO      OOOO",
"OOOOOOOOOOOOOOOOOOOOOOOO      OOOOOOOOOOOOOOOOOOOOOOOO      OOOO",
"OOOOOOOOOOooOOOOOOOOOOOOOO  OOOOOOOOOOOOooOOOOOOooOOOOOO  OOOOOO",
"OOOOOOOOOOooOOOOOOOOOOOOOO  OOOOOOOOOOOOooOOOOOOooOOOOOO  OOOOOO",
"ooOOooooooooooooOOooooOOOO  OOOOooooOOooooooOOooooooOOOO  OOOOoo",
"ooOOooooooooooooOOooooOOOO  OOOOooooOOooooooOOooooooOOOO  OOOOoo",
"ooooooooooXXooXXooooooXXOO  OOXXooooooooooooXXooooooXXOO  OOXXoo",
"ooooooooooXXooXXooooooXXOO  OOXXooooooooooooXXooooooXXOO  OOXXoo",
"ooooooooXXXXooooooooXXXXXX  XXXXXXooXXXXooooooooooXXXXXX  XXXXXX",
"ooooooooXXXXooooooooXXXXXX  XXXXXXooXXXXooooooooooXXXXXX  XXXXXX",
"XXooXXXXXXXXXXXXooXXXXXXXX  XXXXXXXXXXXXXXXXXXooXXXXXXXX  XXXXXX",
"XXooXXXXXXXXXXXXooXXXXXXXX  XXXXXXXXXXXXXXXXXXooXXXXXXXX  XXXXXX",
"XXXXXXXXXXXX....XXXXXXXX      XXXXXXXXXXXXXXXXXXXXXXXX      XXXX",
"XXXXXXXXXXXX....XXXXXXXX      XXXXXXXXXXXXXXXXXXXXXXXX      XXXX",
"                                                                "
};
